<svg width="1674" height="1249" viewBox="0 0 1674 1249" fill="none" xmlns="http://www.w3.org/2000/svg">
<rect x="824" y="141" width="22" height="92" fill="#DBDBDB"/>
<rect x="512" y="255" width="22" height="76" fill="#DBDBDB"/>
<rect x="1135" y="255" width="22" height="76" fill="#DBDBDB"/>
<rect x="1135" y="481" width="22" height="76" fill="#DBDBDB"/>
<rect x="512" y="481" width="22" height="302" fill="#DBDBDB"/>
<rect x="1446" y="774" width="22" height="76" fill="#DBDBDB"/>
<rect x="1446" y="994" width="22" height="106" fill="#DBDBDB"/>
<rect x="823" y="774" width="22" height="76" fill="#DBDBDB"/>
<rect x="834" y="1000" width="22" height="100" fill="#DBDBDB"/>
<rect x="200" y="999" width="22" height="100" fill="#DBDBDB"/>
<rect x="200" y="774" width="22" height="76" fill="#DBDBDB"/>
<rect x="512" y="233" width="645" height="22" fill="#DBDBDB"/>
<rect x="200" y="774" width="645" height="22" fill="#DBDBDB"/>
<rect x="823" y="774" width="645" height="22" fill="#DBDBDB"/>
<g filter="url(#filter0_d_4_97)">
<rect x="626" y="3" width="417" height="138" fill="white"/>
<rect x="624.5" y="1.5" width="420" height="141" stroke="black" stroke-width="3"/>
</g>
<path d="M752.045 38.368V64H744.197V38.368H752.045ZM775.337 38.368V43.336H768.209V38.368H775.337ZM775.337 45.424V64H768.209V45.424H775.337ZM786.297 45.424V47.764C787.809 45.892 789.753 44.956 792.201 44.956C794.541 44.956 796.233 45.604 797.313 46.972C798.357 48.304 798.897 50.068 798.897 52.264V64H791.733V53.596C791.733 51.652 790.905 50.644 789.321 50.644C787.485 50.644 786.585 51.688 786.585 53.776V64H779.457V45.424H786.297ZM820.008 50.86H813.564C813.42 50.212 813.204 49.744 812.844 49.492C812.484 49.276 811.872 49.132 811.044 49.132C809.748 49.132 809.1 49.528 809.1 50.248C809.1 50.536 809.172 50.752 809.388 50.968C809.604 51.184 809.892 51.328 810.324 51.472C810.72 51.616 811.08 51.688 811.368 51.76C811.656 51.832 812.016 51.868 812.484 51.94C812.916 52.012 813.168 52.012 813.204 52.012C814.068 52.192 814.752 52.336 815.328 52.48C815.904 52.624 816.552 52.84 817.272 53.128C817.992 53.452 818.568 53.812 819 54.172C819.432 54.568 819.792 55.072 820.08 55.72C820.368 56.368 820.548 57.124 820.548 57.952C820.548 60.004 819.72 61.588 818.064 62.74C816.408 63.892 814.104 64.468 811.188 64.468C805.248 64.468 802.116 62.272 801.756 57.808H808.488C808.56 58.6 808.848 59.14 809.28 59.5C809.712 59.86 810.396 60.004 811.332 60.004C812.016 60.004 812.556 59.896 812.952 59.608C813.348 59.356 813.564 58.996 813.564 58.528C813.564 58.096 813.348 57.772 812.988 57.556C812.592 57.376 811.872 57.16 810.792 56.908C810.432 56.836 810.144 56.8 809.928 56.728C807.48 56.224 805.824 55.756 805.032 55.324C803.088 54.388 802.152 52.876 802.152 50.752C802.152 48.88 802.908 47.404 804.456 46.396C806.004 45.388 808.236 44.884 811.188 44.884C813.708 44.884 815.76 45.352 817.344 46.216C818.928 47.08 819.792 48.628 820.008 50.86ZM835.748 45.424L835.712 49.852H831.86V56.476C831.86 57.484 832.004 58.168 832.292 58.528C832.58 58.888 833.228 59.032 834.236 59.032C834.92 59.032 835.424 59.032 835.748 58.96V64.108C834.308 64.216 833.048 64.252 832.004 64.252C829.376 64.252 827.504 63.82 826.424 62.884C825.344 61.984 824.804 60.4 824.804 58.168V49.852H821.744V45.424H824.804V39.7H831.896V45.424H835.748ZM857.14 64H849.94C849.76 63.388 849.652 62.812 849.616 62.272C848.068 63.856 846.088 64.612 843.676 64.612C841.588 64.612 839.932 64.108 838.744 63.064C837.556 62.056 836.944 60.616 836.944 58.78C836.944 57.844 837.16 57.052 837.52 56.332C837.916 55.648 838.312 55.108 838.708 54.748C839.104 54.388 839.788 54.028 840.724 53.74C841.696 53.452 842.38 53.236 842.776 53.164C843.208 53.092 844 52.984 845.152 52.804C845.224 52.804 845.26 52.768 845.296 52.768C845.332 52.768 845.368 52.768 845.44 52.768C845.512 52.768 845.548 52.732 845.584 52.732C845.728 52.732 846.016 52.696 846.448 52.66C846.916 52.624 847.276 52.588 847.528 52.516C847.78 52.48 848.068 52.408 848.428 52.3C848.788 52.156 849.04 51.976 849.22 51.76C849.364 51.508 849.472 51.22 849.472 50.896C849.472 49.816 848.68 49.276 847.132 49.276C846.268 49.276 845.62 49.384 845.26 49.672C844.864 49.924 844.612 50.428 844.504 51.148H837.844C837.988 46.972 841.084 44.92 847.132 44.92C851.884 44.92 854.836 46.072 855.916 48.376C856.24 49.06 856.42 50.176 856.42 51.724C856.42 52.48 856.384 53.596 856.384 55.036C856.348 56.476 856.348 57.7 856.348 58.708C856.348 61.192 856.6 62.956 857.14 64ZM849.508 55.54C848.968 55.9 847.852 56.26 846.196 56.62C844.9 56.908 844.252 57.556 844.252 58.564C844.252 59.14 844.432 59.608 844.792 59.932C845.152 60.292 845.62 60.436 846.268 60.436C847.564 60.436 848.5 59.968 849.076 58.996C849.364 58.528 849.508 57.736 849.508 56.656V55.54ZM867.376 38.368V64H860.248V38.368H867.376ZM878.732 38.368V64H871.604V38.368H878.732ZM902.111 58.42C901.535 60.4 900.347 61.912 898.511 62.956C896.675 64.036 894.659 64.54 892.463 64.54C889.439 64.54 886.955 63.712 884.939 61.984C882.959 60.292 881.951 57.952 881.951 54.928C881.951 52.048 882.923 49.636 884.867 47.764C886.811 45.892 889.259 44.956 892.211 44.956C895.343 44.956 897.827 45.928 899.699 47.872C901.571 49.816 902.471 52.444 902.471 55.72V56.26H888.791C888.863 57.448 889.187 58.348 889.835 58.996C890.483 59.644 891.347 59.968 892.427 59.968C893.759 59.968 894.767 59.464 895.451 58.42H902.111ZM895.523 52.696C895.343 50.608 894.263 49.528 892.247 49.528C890.339 49.528 889.187 50.608 888.827 52.696H895.523ZM924.895 38.368V64.036H918.091V62.02C916.795 63.676 915.067 64.504 912.907 64.504C910.387 64.504 908.407 63.604 906.895 61.804C905.383 60.004 904.663 57.592 904.663 54.604C904.663 51.688 905.347 49.348 906.787 47.584C908.227 45.856 910.135 44.956 912.511 44.956C914.599 44.956 916.363 45.784 917.803 47.44V38.368H924.895ZM914.923 50.428C912.835 50.428 911.827 51.832 911.827 54.712C911.827 57.448 912.835 58.852 914.923 58.852C915.931 58.852 916.687 58.492 917.227 57.772C917.767 57.052 918.055 56.008 918.055 54.676C918.055 53.308 917.767 52.228 917.227 51.508C916.687 50.788 915.931 50.428 914.923 50.428ZM725.656 73.368H737.068C741.028 73.368 744.196 74.52 746.5 76.788C748.84 79.056 749.992 82.152 749.992 86.112C749.992 90.36 748.876 93.564 746.644 95.724C744.412 97.92 741.172 99 736.96 99H725.656V73.368ZM733.324 79.812V92.556H736.42C738.328 92.556 739.768 91.98 740.74 90.9C741.712 89.784 742.18 88.236 742.18 86.256C742.18 84.132 741.64 82.512 740.488 81.432C739.336 80.352 737.752 79.812 735.664 79.812H733.324ZM772.827 80.424V99.036H765.915V96.66C764.691 98.604 762.783 99.576 760.227 99.576C755.691 99.576 753.459 97.02 753.459 91.944V80.46H760.659V91.152C760.659 92.808 761.451 93.672 763.071 93.672C764.151 93.672 764.835 93.312 765.195 92.664C765.519 91.98 765.699 91.044 765.699 89.856V80.424H772.827ZM783.607 80.424V82.476C784.867 80.82 786.631 79.992 788.899 79.992C791.347 79.992 793.291 80.892 794.767 82.692C796.243 84.492 796.963 86.904 796.963 89.892C796.963 92.808 796.279 95.148 794.839 96.876C793.435 98.604 791.527 99.468 789.151 99.468C787.099 99.468 785.335 98.676 783.859 97.02V104.976H776.767V80.424H783.607ZM786.739 85.68C784.651 85.68 783.643 87.084 783.643 89.928C783.643 92.7 784.687 94.104 786.775 94.104C788.827 94.104 789.871 92.7 789.871 89.892C789.871 87.084 788.827 85.68 786.739 85.68ZM819.371 93.42C818.795 95.4 817.607 96.912 815.771 97.956C813.935 99.036 811.919 99.54 809.723 99.54C806.699 99.54 804.215 98.712 802.199 96.984C800.219 95.292 799.211 92.952 799.211 89.928C799.211 87.048 800.183 84.636 802.127 82.764C804.071 80.892 806.519 79.956 809.471 79.956C812.603 79.956 815.087 80.928 816.959 82.872C818.831 84.816 819.731 87.444 819.731 90.72V91.26H806.051C806.123 92.448 806.447 93.348 807.095 93.996C807.743 94.644 808.607 94.968 809.687 94.968C811.019 94.968 812.027 94.464 812.711 93.42H819.371ZM812.783 87.696C812.603 85.608 811.523 84.528 809.507 84.528C807.599 84.528 806.447 85.608 806.087 87.696H812.783ZM843.919 73.368V79.956H836.719V99H828.871V79.956H821.707V73.368H843.919ZM852.258 79.884C855.246 79.884 857.694 80.82 859.566 82.62C861.438 84.42 862.374 86.76 862.374 89.676C862.374 92.592 861.402 94.968 859.53 96.804C857.622 98.64 855.174 99.576 852.186 99.576C849.162 99.576 846.678 98.64 844.806 96.84C842.898 95.004 841.962 92.628 841.962 89.748C841.962 86.832 842.898 84.456 844.806 82.62C846.714 80.82 849.198 79.884 852.258 79.884ZM852.114 85.068C850.098 85.068 849.09 86.616 849.09 89.748C849.09 92.88 850.098 94.464 852.186 94.464C854.202 94.464 855.246 92.844 855.246 89.676C855.246 86.58 854.202 85.068 852.114 85.068ZM874.933 79.884C877.921 79.884 880.369 80.82 882.241 82.62C884.113 84.42 885.049 86.76 885.049 89.676C885.049 92.592 884.077 94.968 882.205 96.804C880.297 98.64 877.849 99.576 874.861 99.576C871.837 99.576 869.353 98.64 867.481 96.84C865.573 95.004 864.637 92.628 864.637 89.748C864.637 86.832 865.573 84.456 867.481 82.62C869.389 80.82 871.873 79.884 874.933 79.884ZM874.789 85.068C872.773 85.068 871.765 86.616 871.765 89.748C871.765 92.88 872.773 94.464 874.861 94.464C876.877 94.464 877.921 92.844 877.921 89.676C877.921 86.58 876.877 85.068 874.789 85.068ZM895.413 73.368V99H888.285V73.368H895.413ZM918.973 80.424L912.349 87.444L920.017 99H911.593L907.705 92.196L906.481 93.42V99H899.425V73.368H906.481V73.476V73.584V73.692V73.8V73.908V74.016V74.124V74.232V74.34V74.448V74.556V74.664V74.772V74.88V74.988V75.096V75.204V75.312V75.42V75.528V75.636V75.744V75.852V75.96V76.068V76.176V76.284V76.392V76.5V76.608V76.716V76.824V76.932V77.04V77.148V77.256V77.364V77.472V77.58V77.688V77.796V77.904V78.012V78.12V78.228V78.336V78.444V78.552V78.66V78.768V78.876V78.984V79.092V79.2V79.308V79.416V79.524V79.632V79.74V79.848V79.956V80.064V80.172V80.28V80.388V80.496V80.604V80.712V80.82V80.928V81.036V81.144V81.252V81.36V81.468V81.576V81.684V81.792V81.9V82.008V82.116V82.224V82.332V82.44V82.548V82.656V82.764V82.872V82.98V83.088V83.196V83.304V83.412V83.52V83.628V83.736V83.844V83.952V84.06V84.168V84.24V84.348V84.672L906.373 86.112C906.841 85.464 907.309 84.852 907.777 84.276L911.017 80.424H918.973ZM928.777 73.368V78.336H921.649V73.368H928.777ZM928.777 80.424V99H921.649V80.424H928.777ZM945.172 80.424L945.136 84.852H941.284V91.476C941.284 92.484 941.428 93.168 941.716 93.528C942.004 93.888 942.652 94.032 943.66 94.032C944.344 94.032 944.848 94.032 945.172 93.96V99.108C943.732 99.216 942.472 99.252 941.428 99.252C938.8 99.252 936.928 98.82 935.848 97.884C934.768 96.984 934.228 95.4 934.228 93.168V84.852H931.168V80.424H934.228V74.7H941.32V80.424H945.172Z" fill="black"/>
<g filter="url(#filter1_d_4_97)">
<rect x="314" y="334" width="417" height="138" fill="white"/>
<rect x="312.5" y="332.5" width="420" height="141" stroke="black" stroke-width="3"/>
</g>
<path d="M407.051 387.368V413H399.203V387.368H407.051ZM437.147 394.244V400.472C436.139 400.148 435.239 399.968 434.519 399.968C433.079 399.968 431.963 400.4 431.207 401.192C430.451 401.984 430.091 403.136 430.091 404.576V413H422.999V394.424H429.803L429.767 397.304C430.415 396.152 431.207 395.324 432.071 394.748C432.935 394.208 434.015 393.92 435.311 393.92C435.887 393.92 436.499 394.028 437.147 394.244ZM458.111 413H450.911C450.731 412.388 450.623 411.812 450.587 411.272C449.039 412.856 447.059 413.612 444.647 413.612C442.559 413.612 440.903 413.108 439.715 412.064C438.527 411.056 437.915 409.616 437.915 407.78C437.915 406.844 438.131 406.052 438.491 405.332C438.887 404.648 439.283 404.108 439.679 403.748C440.075 403.388 440.759 403.028 441.695 402.74C442.667 402.452 443.351 402.236 443.747 402.164C444.179 402.092 444.971 401.984 446.123 401.804C446.195 401.804 446.231 401.768 446.267 401.768C446.303 401.768 446.339 401.768 446.411 401.768C446.483 401.768 446.519 401.732 446.555 401.732C446.699 401.732 446.987 401.696 447.419 401.66C447.887 401.624 448.247 401.588 448.499 401.516C448.751 401.48 449.039 401.408 449.399 401.3C449.759 401.156 450.011 400.976 450.191 400.76C450.335 400.508 450.443 400.22 450.443 399.896C450.443 398.816 449.651 398.276 448.103 398.276C447.239 398.276 446.591 398.384 446.231 398.672C445.835 398.924 445.583 399.428 445.475 400.148H438.815C438.959 395.972 442.055 393.92 448.103 393.92C452.855 393.92 455.807 395.072 456.887 397.376C457.211 398.06 457.391 399.176 457.391 400.724C457.391 401.48 457.355 402.596 457.355 404.036C457.319 405.476 457.319 406.7 457.319 407.708C457.319 410.192 457.571 411.956 458.111 413ZM450.479 404.54C449.939 404.9 448.823 405.26 447.167 405.62C445.871 405.908 445.223 406.556 445.223 407.564C445.223 408.14 445.403 408.608 445.763 408.932C446.123 409.292 446.591 409.436 447.239 409.436C448.535 409.436 449.471 408.968 450.047 407.996C450.335 407.528 450.479 406.736 450.479 405.656V404.54ZM467.951 394.424V396.764C469.463 394.892 471.407 393.956 473.855 393.956C476.195 393.956 477.887 394.604 478.967 395.972C480.011 397.304 480.551 399.068 480.551 401.264V413H473.387V402.596C473.387 400.652 472.559 399.644 470.975 399.644C469.139 399.644 468.239 400.688 468.239 402.776V413H461.111V394.424H467.951ZM508.754 394.424L508.718 398.852H504.866V405.476C504.866 406.484 505.01 407.168 505.298 407.528C505.586 407.888 506.234 408.032 507.242 408.032C507.926 408.032 508.43 408.032 508.754 407.96V413.108C507.314 413.216 506.054 413.252 505.01 413.252C502.382 413.252 500.51 412.82 499.43 411.884C498.35 410.984 497.81 409.4 497.81 407.168V398.852H494.75V394.424H497.81V388.7H504.902V394.424H508.754ZM518.158 387.368V396.764C519.598 394.928 521.47 393.992 523.846 393.992C528.31 393.992 530.542 396.332 530.542 401.012V413H523.486V402.74C523.486 401.768 523.306 401.012 522.946 400.472C522.586 399.968 521.902 399.68 520.966 399.68C519.094 399.68 518.158 400.976 518.158 403.496V413H511.174V387.368H518.158ZM553.742 407.42C553.166 409.4 551.978 410.912 550.142 411.956C548.306 413.036 546.29 413.54 544.094 413.54C541.07 413.54 538.586 412.712 536.57 410.984C534.59 409.292 533.582 406.952 533.582 403.928C533.582 401.048 534.554 398.636 536.498 396.764C538.442 394.892 540.89 393.956 543.842 393.956C546.974 393.956 549.458 394.928 551.33 396.872C553.202 398.816 554.102 401.444 554.102 404.72V405.26H540.422C540.494 406.448 540.818 407.348 541.466 407.996C542.114 408.644 542.978 408.968 544.058 408.968C545.39 408.968 546.398 408.464 547.082 407.42H553.742ZM547.154 401.696C546.974 399.608 545.894 398.528 543.878 398.528C541.97 398.528 540.818 399.608 540.458 401.696H547.154ZM576.057 394.424L576.021 396.8C577.389 394.856 579.333 393.884 581.853 393.884C584.409 393.884 586.173 394.892 587.145 396.836C588.513 394.892 590.529 393.884 593.121 393.884C595.209 393.884 596.865 394.532 598.089 395.756C599.313 397.016 599.925 398.708 599.925 400.796V413H592.725V402.524C592.725 400.544 591.969 399.536 590.457 399.536C588.873 399.536 588.081 400.58 588.081 402.668V413H580.989V402.272C580.989 400.4 580.233 399.428 578.757 399.428C577.137 399.428 576.345 400.508 576.345 402.668V413H569.217V394.424H576.057ZM613.277 393.884C616.265 393.884 618.713 394.82 620.585 396.62C622.457 398.42 623.393 400.76 623.393 403.676C623.393 406.592 622.421 408.968 620.549 410.804C618.641 412.64 616.193 413.576 613.205 413.576C610.181 413.576 607.697 412.64 605.825 410.84C603.917 409.004 602.981 406.628 602.981 403.748C602.981 400.832 603.917 398.456 605.825 396.62C607.733 394.82 610.217 393.884 613.277 393.884ZM613.133 399.068C611.117 399.068 610.109 400.616 610.109 403.748C610.109 406.88 611.117 408.464 613.205 408.464C615.221 408.464 616.265 406.844 616.265 403.676C616.265 400.58 615.221 399.068 613.133 399.068ZM645.889 387.368V413.036H639.085V411.02C637.789 412.676 636.061 413.504 633.901 413.504C631.381 413.504 629.401 412.604 627.889 410.804C626.377 409.004 625.657 406.592 625.657 403.604C625.657 400.688 626.341 398.348 627.781 396.584C629.221 394.856 631.129 393.956 633.505 393.956C635.593 393.956 637.357 394.784 638.797 396.44V387.368H645.889ZM635.917 399.428C633.829 399.428 632.821 400.832 632.821 403.712C632.821 406.448 633.829 407.852 635.917 407.852C636.925 407.852 637.681 407.492 638.221 406.772C638.761 406.052 639.049 405.008 639.049 403.676C639.049 402.308 638.761 401.228 638.221 400.508C637.681 399.788 636.925 399.428 635.917 399.428Z" fill="black"/>
<g filter="url(#filter2_d_4_97)">
<rect x="625" y="853" width="417" height="138" fill="white"/>
<rect x="623.5" y="851.5" width="420" height="141" stroke="black" stroke-width="3"/>
</g>
<path d="M729.055 906.368V932H721.207V906.368H729.055ZM764.119 932H756.919C756.739 931.388 756.631 930.812 756.595 930.272C755.047 931.856 753.067 932.612 750.655 932.612C748.567 932.612 746.911 932.108 745.723 931.064C744.535 930.056 743.923 928.616 743.923 926.78C743.923 925.844 744.139 925.052 744.499 924.332C744.895 923.648 745.291 923.108 745.687 922.748C746.083 922.388 746.767 922.028 747.703 921.74C748.675 921.452 749.359 921.236 749.755 921.164C750.187 921.092 750.979 920.984 752.131 920.804C752.203 920.804 752.239 920.768 752.275 920.768C752.311 920.768 752.347 920.768 752.419 920.768C752.491 920.768 752.527 920.732 752.563 920.732C752.707 920.732 752.995 920.696 753.427 920.66C753.895 920.624 754.255 920.588 754.507 920.516C754.759 920.48 755.047 920.408 755.407 920.3C755.767 920.156 756.019 919.976 756.199 919.76C756.343 919.508 756.451 919.22 756.451 918.896C756.451 917.816 755.659 917.276 754.111 917.276C753.247 917.276 752.599 917.384 752.239 917.672C751.843 917.924 751.591 918.428 751.483 919.148H744.823C744.967 914.972 748.063 912.92 754.111 912.92C758.863 912.92 761.815 914.072 762.895 916.376C763.219 917.06 763.399 918.176 763.399 919.724C763.399 920.48 763.363 921.596 763.363 923.036C763.327 924.476 763.327 925.7 763.327 926.708C763.327 929.192 763.579 930.956 764.119 932ZM756.487 923.54C755.947 923.9 754.831 924.26 753.175 924.62C751.879 924.908 751.231 925.556 751.231 926.564C751.231 927.14 751.411 927.608 751.771 927.932C752.131 928.292 752.599 928.436 753.247 928.436C754.543 928.436 755.479 927.968 756.055 926.996C756.343 926.528 756.487 925.736 756.487 924.656V923.54ZM773.995 913.424L773.959 915.8C775.327 913.856 777.271 912.884 779.791 912.884C782.347 912.884 784.111 913.892 785.083 915.836C786.451 913.892 788.467 912.884 791.059 912.884C793.147 912.884 794.803 913.532 796.027 914.756C797.251 916.016 797.863 917.708 797.863 919.796V932H790.663V921.524C790.663 919.544 789.907 918.536 788.395 918.536C786.811 918.536 786.019 919.58 786.019 921.668V932H778.927V921.272C778.927 919.4 778.171 918.428 776.695 918.428C775.075 918.428 774.283 919.508 774.283 921.668V932H767.155V913.424H773.995ZM823.238 912.884C826.226 912.884 828.674 913.82 830.546 915.62C832.418 917.42 833.354 919.76 833.354 922.676C833.354 925.592 832.382 927.968 830.51 929.804C828.602 931.64 826.154 932.576 823.166 932.576C820.142 932.576 817.658 931.64 815.786 929.84C813.878 928.004 812.942 925.628 812.942 922.748C812.942 919.832 813.878 917.456 815.786 915.62C817.694 913.82 820.178 912.884 823.238 912.884ZM823.094 918.068C821.078 918.068 820.07 919.616 820.07 922.748C820.07 925.88 821.078 927.464 823.166 927.464C825.182 927.464 826.226 925.844 826.226 922.676C826.226 919.58 825.182 918.068 823.094 918.068ZM843.322 913.424V915.764C844.834 913.892 846.778 912.956 849.226 912.956C851.566 912.956 853.258 913.604 854.338 914.972C855.382 916.304 855.922 918.068 855.922 920.264V932H848.758V921.596C848.758 919.652 847.93 918.644 846.346 918.644C844.51 918.644 843.61 919.688 843.61 921.776V932H836.482V913.424H843.322ZM901.729 906.368L901.693 932H894.313V928.148C894.313 923.612 894.421 918.752 894.601 913.568L889.777 932H883.909L879.049 913.568C879.229 917.456 879.337 921.956 879.373 927.068L879.409 932H872.029V906.368H883.297L884.953 913.028C885.817 916.628 886.465 919.868 886.933 922.748C887.293 920.696 888.013 917.384 889.093 912.848L890.677 906.368H901.729ZM924.853 932H917.653C917.473 931.388 917.365 930.812 917.329 930.272C915.781 931.856 913.801 932.612 911.389 932.612C909.301 932.612 907.645 932.108 906.457 931.064C905.269 930.056 904.657 928.616 904.657 926.78C904.657 925.844 904.873 925.052 905.233 924.332C905.629 923.648 906.025 923.108 906.421 922.748C906.817 922.388 907.501 922.028 908.437 921.74C909.409 921.452 910.093 921.236 910.489 921.164C910.921 921.092 911.713 920.984 912.865 920.804C912.937 920.804 912.973 920.768 913.009 920.768C913.045 920.768 913.081 920.768 913.153 920.768C913.225 920.768 913.261 920.732 913.297 920.732C913.441 920.732 913.729 920.696 914.161 920.66C914.629 920.624 914.989 920.588 915.241 920.516C915.493 920.48 915.781 920.408 916.141 920.3C916.501 920.156 916.753 919.976 916.933 919.76C917.077 919.508 917.185 919.22 917.185 918.896C917.185 917.816 916.393 917.276 914.845 917.276C913.981 917.276 913.333 917.384 912.973 917.672C912.577 917.924 912.325 918.428 912.217 919.148H905.557C905.701 914.972 908.797 912.92 914.845 912.92C919.597 912.92 922.549 914.072 923.629 916.376C923.953 917.06 924.133 918.176 924.133 919.724C924.133 920.48 924.097 921.596 924.097 923.036C924.061 924.476 924.061 925.7 924.061 926.708C924.061 929.192 924.313 930.956 924.853 932ZM917.221 923.54C916.681 923.9 915.565 924.26 913.909 924.62C912.613 924.908 911.965 925.556 911.965 926.564C911.965 927.14 912.145 927.608 912.505 927.932C912.865 928.292 913.333 928.436 913.981 928.436C915.277 928.436 916.213 927.968 916.789 926.996C917.077 926.528 917.221 925.736 917.221 924.656V923.54ZM946.933 924.548C946.573 927.068 945.565 929.012 943.837 930.38C942.109 931.784 939.913 932.468 937.213 932.468C934.189 932.468 931.741 931.604 929.869 929.804C927.997 928.04 927.061 925.736 927.061 922.856C927.061 919.904 927.997 917.528 929.869 915.728C931.741 913.928 934.189 912.992 937.249 912.992C939.913 912.992 942.145 913.676 943.873 915.044C945.601 916.412 946.573 918.212 946.789 920.444H939.985C939.877 919.724 939.589 919.112 939.085 918.68C938.581 918.248 938.005 918.032 937.321 918.032C935.233 918.032 934.189 919.652 934.189 922.892C934.189 925.844 935.197 927.284 937.285 927.284C938.869 927.284 939.841 926.384 940.129 924.548H946.933Z" fill="black"/>
<g filter="url(#filter3_d_4_97)">
<rect x="1248" y="853" width="417" height="138" fill="white"/>
<rect x="1246.5" y="851.5" width="420" height="141" stroke="black" stroke-width="3"/>
</g>
<path d="M1307.37 906.368V932H1299.52V906.368H1307.37ZM1342.44 932H1335.24C1335.06 931.388 1334.95 930.812 1334.91 930.272C1333.36 931.856 1331.38 932.612 1328.97 932.612C1326.88 932.612 1325.23 932.108 1324.04 931.064C1322.85 930.056 1322.24 928.616 1322.24 926.78C1322.24 925.844 1322.46 925.052 1322.82 924.332C1323.21 923.648 1323.61 923.108 1324 922.748C1324.4 922.388 1325.08 922.028 1326.02 921.74C1326.99 921.452 1327.68 921.236 1328.07 921.164C1328.5 921.092 1329.3 920.984 1330.45 920.804C1330.52 920.804 1330.56 920.768 1330.59 920.768C1330.63 920.768 1330.66 920.768 1330.74 920.768C1330.81 920.768 1330.84 920.732 1330.88 920.732C1331.02 920.732 1331.31 920.696 1331.74 920.66C1332.21 920.624 1332.57 920.588 1332.82 920.516C1333.08 920.48 1333.36 920.408 1333.72 920.3C1334.08 920.156 1334.34 919.976 1334.52 919.76C1334.66 919.508 1334.77 919.22 1334.77 918.896C1334.77 917.816 1333.98 917.276 1332.43 917.276C1331.56 917.276 1330.92 917.384 1330.56 917.672C1330.16 917.924 1329.91 918.428 1329.8 919.148H1323.14C1323.28 914.972 1326.38 912.92 1332.43 912.92C1337.18 912.92 1340.13 914.072 1341.21 916.376C1341.54 917.06 1341.72 918.176 1341.72 919.724C1341.72 920.48 1341.68 921.596 1341.68 923.036C1341.64 924.476 1341.64 925.7 1341.64 926.708C1341.64 929.192 1341.9 930.956 1342.44 932ZM1334.8 923.54C1334.26 923.9 1333.15 924.26 1331.49 924.62C1330.2 924.908 1329.55 925.556 1329.55 926.564C1329.55 927.14 1329.73 927.608 1330.09 927.932C1330.45 928.292 1330.92 928.436 1331.56 928.436C1332.86 928.436 1333.8 927.968 1334.37 926.996C1334.66 926.528 1334.8 925.736 1334.8 924.656V923.54ZM1352.31 913.424L1352.28 915.8C1353.64 913.856 1355.59 912.884 1358.11 912.884C1360.66 912.884 1362.43 913.892 1363.4 915.836C1364.77 913.892 1366.78 912.884 1369.38 912.884C1371.46 912.884 1373.12 913.532 1374.34 914.756C1375.57 916.016 1376.18 917.708 1376.18 919.796V932H1368.98V921.524C1368.98 919.544 1368.22 918.536 1366.71 918.536C1365.13 918.536 1364.34 919.58 1364.34 921.668V932H1357.24V921.272C1357.24 919.4 1356.49 918.428 1355.01 918.428C1353.39 918.428 1352.6 919.508 1352.6 921.668V932H1345.47V913.424H1352.31ZM1401.55 912.884C1404.54 912.884 1406.99 913.82 1408.86 915.62C1410.73 917.42 1411.67 919.76 1411.67 922.676C1411.67 925.592 1410.7 927.968 1408.83 929.804C1406.92 931.64 1404.47 932.576 1401.48 932.576C1398.46 932.576 1395.97 931.64 1394.1 929.84C1392.19 928.004 1391.26 925.628 1391.26 922.748C1391.26 919.832 1392.19 917.456 1394.1 915.62C1396.01 913.82 1398.49 912.884 1401.55 912.884ZM1401.41 918.068C1399.39 918.068 1398.39 919.616 1398.39 922.748C1398.39 925.88 1399.39 927.464 1401.48 927.464C1403.5 927.464 1404.54 925.844 1404.54 922.676C1404.54 919.58 1403.5 918.068 1401.41 918.068ZM1421.64 913.424V915.764C1423.15 913.892 1425.09 912.956 1427.54 912.956C1429.88 912.956 1431.57 913.604 1432.65 914.972C1433.7 916.304 1434.24 918.068 1434.24 920.264V932H1427.07V921.596C1427.07 919.652 1426.25 918.644 1424.66 918.644C1422.83 918.644 1421.93 919.688 1421.93 921.776V932H1414.8V913.424H1421.64ZM1483 906.368L1475.98 932H1468.31L1467.12 925.736C1466.26 921.128 1465.68 917.672 1465.43 915.332C1465.29 917.132 1464.78 920.588 1463.88 925.664L1462.77 932H1455.03L1448.01 906.368H1455.75L1457.04 912.164C1458.01 916.628 1458.63 920.732 1458.91 924.476C1459.13 921.812 1459.74 917.744 1460.82 912.344L1462.01 906.368H1468.96L1470 911.48C1471.15 917.276 1471.84 921.596 1472.05 924.476C1472.34 920.912 1473.06 916.412 1474.25 910.976L1475.26 906.368H1483ZM1492.07 906.368V911.336H1484.94V906.368H1492.07ZM1492.07 913.424V932H1484.94V913.424H1492.07ZM1503.03 913.424V915.764C1504.54 913.892 1506.48 912.956 1508.93 912.956C1511.27 912.956 1512.96 913.604 1514.04 914.972C1515.09 916.304 1515.63 918.068 1515.63 920.264V932H1508.46V921.596C1508.46 919.652 1507.63 918.644 1506.05 918.644C1504.21 918.644 1503.31 919.688 1503.31 921.776V932H1496.19V913.424H1503.03ZM1538.9 906.368V932.036H1532.09V930.02C1530.8 931.676 1529.07 932.504 1526.91 932.504C1524.39 932.504 1522.41 931.604 1520.9 929.804C1519.38 928.004 1518.66 925.592 1518.66 922.604C1518.66 919.688 1519.35 917.348 1520.79 915.584C1522.23 913.856 1524.14 912.956 1526.51 912.956C1528.6 912.956 1530.36 913.784 1531.8 915.44V906.368H1538.9ZM1528.92 918.428C1526.84 918.428 1525.83 919.832 1525.83 922.712C1525.83 925.448 1526.84 926.852 1528.92 926.852C1529.93 926.852 1530.69 926.492 1531.23 925.772C1531.77 925.052 1532.06 924.008 1532.06 922.676C1532.06 921.308 1531.77 920.228 1531.23 919.508C1530.69 918.788 1529.93 918.428 1528.92 918.428ZM1552.3 912.884C1555.29 912.884 1557.74 913.82 1559.61 915.62C1561.48 917.42 1562.42 919.76 1562.42 922.676C1562.42 925.592 1561.45 927.968 1559.58 929.804C1557.67 931.64 1555.22 932.576 1552.23 932.576C1549.21 932.576 1546.72 931.64 1544.85 929.84C1542.94 928.004 1542.01 925.628 1542.01 922.748C1542.01 919.832 1542.94 917.456 1544.85 915.62C1546.76 913.82 1549.24 912.884 1552.3 912.884ZM1552.16 918.068C1550.14 918.068 1549.14 919.616 1549.14 922.748C1549.14 925.88 1550.14 927.464 1552.23 927.464C1554.25 927.464 1555.29 925.844 1555.29 922.676C1555.29 919.58 1554.25 918.068 1552.16 918.068ZM1595.07 913.424L1589.16 932H1581.93L1580.34 925.916C1579.88 924.08 1579.48 921.848 1579.16 919.256C1578.83 921.668 1578.44 923.9 1577.97 925.916L1576.49 932H1569.22L1563.35 913.424H1570.73L1572.06 918.644C1572.64 921.02 1573.11 923.468 1573.47 925.988C1573.9 923.072 1574.33 920.516 1574.84 918.356L1575.92 913.424H1582.54L1583.76 918.86C1584.27 921.128 1584.66 923.468 1585.02 925.916C1585.31 923.612 1585.78 921.308 1586.36 918.968L1587.72 913.424H1595.07ZM1614.08 918.86H1607.64C1607.49 918.212 1607.28 917.744 1606.92 917.492C1606.56 917.276 1605.94 917.132 1605.12 917.132C1603.82 917.132 1603.17 917.528 1603.17 918.248C1603.17 918.536 1603.24 918.752 1603.46 918.968C1603.68 919.184 1603.96 919.328 1604.4 919.472C1604.79 919.616 1605.15 919.688 1605.44 919.76C1605.73 919.832 1606.09 919.868 1606.56 919.94C1606.99 920.012 1607.24 920.012 1607.28 920.012C1608.14 920.192 1608.82 920.336 1609.4 920.48C1609.98 920.624 1610.62 920.84 1611.34 921.128C1612.06 921.452 1612.64 921.812 1613.07 922.172C1613.5 922.568 1613.86 923.072 1614.15 923.72C1614.44 924.368 1614.62 925.124 1614.62 925.952C1614.62 928.004 1613.79 929.588 1612.14 930.74C1610.48 931.892 1608.18 932.468 1605.26 932.468C1599.32 932.468 1596.19 930.272 1595.83 925.808H1602.56C1602.63 926.6 1602.92 927.14 1603.35 927.5C1603.78 927.86 1604.47 928.004 1605.4 928.004C1606.09 928.004 1606.63 927.896 1607.02 927.608C1607.42 927.356 1607.64 926.996 1607.64 926.528C1607.64 926.096 1607.42 925.772 1607.06 925.556C1606.66 925.376 1605.94 925.16 1604.86 924.908C1604.5 924.836 1604.22 924.8 1604 924.728C1601.55 924.224 1599.9 923.756 1599.1 923.324C1597.16 922.388 1596.22 920.876 1596.22 918.752C1596.22 916.88 1596.98 915.404 1598.53 914.396C1600.08 913.388 1602.31 912.884 1605.26 912.884C1607.78 912.884 1609.83 913.352 1611.42 914.216C1613 915.08 1613.86 916.628 1614.08 918.86Z" fill="black"/>
<g filter="url(#filter4_d_4_97)">
<rect x="3" y="853" width="417" height="138" fill="white"/>
<rect x="1.5" y="851.5" width="420" height="141" stroke="black" stroke-width="3"/>
</g>
<path d="M95.6997 906.368V932H87.8517V906.368H95.6997ZM130.763 932H123.563C123.383 931.388 123.275 930.812 123.239 930.272C121.691 931.856 119.711 932.612 117.299 932.612C115.211 932.612 113.555 932.108 112.367 931.064C111.179 930.056 110.567 928.616 110.567 926.78C110.567 925.844 110.783 925.052 111.143 924.332C111.539 923.648 111.935 923.108 112.331 922.748C112.727 922.388 113.411 922.028 114.347 921.74C115.319 921.452 116.003 921.236 116.399 921.164C116.831 921.092 117.623 920.984 118.775 920.804C118.847 920.804 118.883 920.768 118.919 920.768C118.955 920.768 118.991 920.768 119.063 920.768C119.135 920.768 119.171 920.732 119.207 920.732C119.351 920.732 119.639 920.696 120.071 920.66C120.539 920.624 120.899 920.588 121.151 920.516C121.403 920.48 121.691 920.408 122.051 920.3C122.411 920.156 122.663 919.976 122.843 919.76C122.987 919.508 123.095 919.22 123.095 918.896C123.095 917.816 122.303 917.276 120.755 917.276C119.891 917.276 119.243 917.384 118.883 917.672C118.487 917.924 118.235 918.428 118.127 919.148H111.467C111.611 914.972 114.707 912.92 120.755 912.92C125.507 912.92 128.459 914.072 129.539 916.376C129.863 917.06 130.043 918.176 130.043 919.724C130.043 920.48 130.007 921.596 130.007 923.036C129.971 924.476 129.971 925.7 129.971 926.708C129.971 929.192 130.223 930.956 130.763 932ZM123.131 923.54C122.591 923.9 121.475 924.26 119.819 924.62C118.523 924.908 117.875 925.556 117.875 926.564C117.875 927.14 118.055 927.608 118.415 927.932C118.775 928.292 119.243 928.436 119.891 928.436C121.187 928.436 122.123 927.968 122.699 926.996C122.987 926.528 123.131 925.736 123.131 924.656V923.54ZM140.639 913.424L140.603 915.8C141.971 913.856 143.915 912.884 146.435 912.884C148.991 912.884 150.755 913.892 151.727 915.836C153.095 913.892 155.111 912.884 157.703 912.884C159.791 912.884 161.447 913.532 162.671 914.756C163.895 916.016 164.507 917.708 164.507 919.796V932H157.307V921.524C157.307 919.544 156.551 918.536 155.039 918.536C153.455 918.536 152.663 919.58 152.663 921.668V932H145.571V921.272C145.571 919.4 144.815 918.428 143.339 918.428C141.719 918.428 140.927 919.508 140.927 921.668V932H133.799V913.424H140.639ZM189.883 912.884C192.871 912.884 195.319 913.82 197.191 915.62C199.063 917.42 199.999 919.76 199.999 922.676C199.999 925.592 199.027 927.968 197.155 929.804C195.247 931.64 192.799 932.576 189.811 932.576C186.787 932.576 184.303 931.64 182.431 929.84C180.523 928.004 179.587 925.628 179.587 922.748C179.587 919.832 180.523 917.456 182.431 915.62C184.339 913.82 186.823 912.884 189.883 912.884ZM189.739 918.068C187.723 918.068 186.715 919.616 186.715 922.748C186.715 925.88 187.723 927.464 189.811 927.464C191.827 927.464 192.871 925.844 192.871 922.676C192.871 919.58 191.827 918.068 189.739 918.068ZM209.966 913.424V915.764C211.478 913.892 213.422 912.956 215.87 912.956C218.21 912.956 219.902 913.604 220.982 914.972C222.026 916.304 222.566 918.068 222.566 920.264V932H215.402V921.596C215.402 919.652 214.574 918.644 212.99 918.644C211.154 918.644 210.254 919.688 210.254 921.776V932H203.126V913.424H209.966ZM257.862 925.304V932H238.602V906.368H246.486V925.304H257.862ZM268.405 906.368V911.336H261.277V906.368H268.405ZM268.405 913.424V932H261.277V913.424H268.405ZM279.365 913.424V915.764C280.877 913.892 282.821 912.956 285.269 912.956C287.609 912.956 289.301 913.604 290.381 914.972C291.425 916.304 291.965 918.068 291.965 920.264V932H284.801V921.596C284.801 919.652 283.973 918.644 282.389 918.644C280.553 918.644 279.653 919.688 279.653 921.776V932H272.525V913.424H279.365ZM315.273 913.424V932.036H308.361V929.66C307.137 931.604 305.229 932.576 302.673 932.576C298.137 932.576 295.905 930.02 295.905 924.944V913.46H303.105V924.152C303.105 925.808 303.897 926.672 305.517 926.672C306.597 926.672 307.281 926.312 307.641 925.664C307.965 924.98 308.145 924.044 308.145 922.856V913.424H315.273ZM336.888 913.424L331.092 922.208L337.68 932H329.868L328.5 929.768C328.104 929.156 327.672 928.256 327.24 927.068C326.7 928.292 326.232 929.228 325.872 929.84L324.612 932H316.764L323.28 922.208L317.448 913.424H325.224L326.196 915.152C326.7 916.124 327.06 916.88 327.312 917.384C327.852 916.16 328.248 915.296 328.5 914.864L329.328 913.424H336.888Z" fill="black"/>
<g filter="url(#filter5_d_4_97)">
<rect x="937" y="334" width="417" height="138" fill="white"/>
<rect x="935.5" y="332.5" width="420" height="141" stroke="black" stroke-width="3"/>
</g>
<path d="M978.832 389.216V412H971.856V389.216H978.832ZM1010.32 389.216V412.032H1004.27V410.24C1003.12 411.712 1001.58 412.448 999.664 412.448C997.424 412.448 995.664 411.648 994.32 410.048C992.976 408.448 992.336 406.304 992.336 403.648C992.336 401.056 992.944 398.976 994.224 397.408C995.504 395.872 997.2 395.072 999.312 395.072C1001.17 395.072 1002.74 395.808 1004.02 397.28V389.216H1010.32ZM1001.46 399.936C999.6 399.936 998.704 401.184 998.704 403.744C998.704 406.176 999.6 407.424 1001.46 407.424C1002.35 407.424 1003.02 407.104 1003.5 406.464C1003.98 405.824 1004.24 404.896 1004.24 403.712C1004.24 402.496 1003.98 401.536 1003.5 400.896C1003.02 400.256 1002.35 399.936 1001.46 399.936ZM1020.29 389.216V393.632H1013.95V389.216H1020.29ZM1020.29 395.488V412H1013.95V395.488H1020.29ZM1041.16 389.216V412.032H1035.12V410.24C1033.96 411.712 1032.43 412.448 1030.51 412.448C1028.27 412.448 1026.51 411.648 1025.16 410.048C1023.82 408.448 1023.18 406.304 1023.18 403.648C1023.18 401.056 1023.79 398.976 1025.07 397.408C1026.35 395.872 1028.04 395.072 1030.16 395.072C1032.01 395.072 1033.58 395.808 1034.86 397.28V389.216H1041.16ZM1032.3 399.936C1030.44 399.936 1029.55 401.184 1029.55 403.744C1029.55 406.176 1030.44 407.424 1032.3 407.424C1033.2 407.424 1033.87 407.104 1034.35 406.464C1034.83 405.824 1035.08 404.896 1035.08 403.712C1035.08 402.496 1034.83 401.536 1034.35 400.896C1033.87 400.256 1033.2 399.936 1032.3 399.936ZM1061.47 395.488V397.568C1062.81 395.904 1064.54 395.072 1066.71 395.072C1068.79 395.072 1070.3 395.648 1071.26 396.864C1072.19 398.048 1072.67 399.616 1072.67 401.568V412H1066.3V402.752C1066.3 401.024 1065.56 400.128 1064.15 400.128C1062.52 400.128 1061.72 401.056 1061.72 402.912V412H1055.39V395.488H1061.47ZM1084.52 395.008C1087.18 395.008 1089.35 395.84 1091.02 397.44C1092.68 399.04 1093.51 401.12 1093.51 403.712C1093.51 406.304 1092.65 408.416 1090.98 410.048C1089.29 411.68 1087.11 412.512 1084.46 412.512C1081.77 412.512 1079.56 411.68 1077.9 410.08C1076.2 408.448 1075.37 406.336 1075.37 403.776C1075.37 401.184 1076.2 399.072 1077.9 397.44C1079.59 395.84 1081.8 395.008 1084.52 395.008ZM1084.39 399.616C1082.6 399.616 1081.7 400.992 1081.7 403.776C1081.7 406.56 1082.6 407.968 1084.46 407.968C1086.25 407.968 1087.18 406.528 1087.18 403.712C1087.18 400.96 1086.25 399.616 1084.39 399.616ZM1107.2 395.488L1107.17 399.424H1103.75V405.312C1103.75 406.208 1103.88 406.816 1104.13 407.136C1104.39 407.456 1104.96 407.584 1105.86 407.584C1106.47 407.584 1106.92 407.584 1107.2 407.52V412.096C1105.92 412.192 1104.8 412.224 1103.88 412.224C1101.54 412.224 1099.88 411.84 1098.92 411.008C1097.96 410.208 1097.48 408.8 1097.48 406.816V399.424H1094.76V395.488H1097.48V390.4H1103.78V395.488H1107.2ZM1132.49 395.328V400.864C1131.59 400.576 1130.79 400.416 1130.15 400.416C1128.87 400.416 1127.88 400.8 1127.21 401.504C1126.54 402.208 1126.22 403.232 1126.22 404.512V412H1119.91V395.488H1125.96L1125.93 398.048C1126.51 397.024 1127.21 396.288 1127.98 395.776C1128.75 395.296 1129.71 395.04 1130.86 395.04C1131.37 395.04 1131.91 395.136 1132.49 395.328ZM1151.48 395.488V412.032H1145.33V409.92C1144.24 411.648 1142.55 412.512 1140.28 412.512C1136.24 412.512 1134.26 410.24 1134.26 405.728V395.52H1140.66V405.024C1140.66 406.496 1141.36 407.264 1142.8 407.264C1143.76 407.264 1144.37 406.944 1144.69 406.368C1144.98 405.76 1145.14 404.928 1145.14 403.872V395.488H1151.48ZM1161.06 395.488V397.568C1162.4 395.904 1164.13 395.072 1166.31 395.072C1168.39 395.072 1169.89 395.648 1170.85 396.864C1171.78 398.048 1172.26 399.616 1172.26 401.568V412H1165.89V402.752C1165.89 401.024 1165.15 400.128 1163.75 400.128C1162.11 400.128 1161.31 401.056 1161.31 402.912V412H1154.98V395.488H1161.06ZM1197.33 395.488L1197.3 399.424H1193.87V405.312C1193.87 406.208 1194 406.816 1194.26 407.136C1194.51 407.456 1195.09 407.584 1195.98 407.584C1196.59 407.584 1197.04 407.584 1197.33 407.52V412.096C1196.05 412.192 1194.93 412.224 1194 412.224C1191.66 412.224 1190 411.84 1189.04 411.008C1188.08 410.208 1187.6 408.8 1187.6 406.816V399.424H1184.88V395.488H1187.6V390.4H1193.9V395.488H1197.33ZM1205.69 389.216V397.568C1206.97 395.936 1208.63 395.104 1210.74 395.104C1214.71 395.104 1216.7 397.184 1216.7 401.344V412H1210.42V402.88C1210.42 402.016 1210.26 401.344 1209.94 400.864C1209.62 400.416 1209.02 400.16 1208.18 400.16C1206.52 400.16 1205.69 401.312 1205.69 403.552V412H1199.48V389.216H1205.69ZM1237.32 407.04C1236.81 408.8 1235.75 410.144 1234.12 411.072C1232.49 412.032 1230.69 412.48 1228.74 412.48C1226.05 412.48 1223.85 411.744 1222.05 410.208C1220.29 408.704 1219.4 406.624 1219.4 403.936C1219.4 401.376 1220.26 399.232 1221.99 397.568C1223.72 395.904 1225.89 395.072 1228.52 395.072C1231.3 395.072 1233.51 395.936 1235.17 397.664C1236.84 399.392 1237.64 401.728 1237.64 404.64V405.12H1225.48C1225.54 406.176 1225.83 406.976 1226.41 407.552C1226.98 408.128 1227.75 408.416 1228.71 408.416C1229.89 408.416 1230.79 407.968 1231.4 407.04H1237.32ZM1231.46 401.952C1231.3 400.096 1230.34 399.136 1228.55 399.136C1226.85 399.136 1225.83 400.096 1225.51 401.952H1231.46ZM1257.15 395.488L1257.12 397.6C1258.34 395.872 1260.07 395.008 1262.31 395.008C1264.58 395.008 1266.15 395.904 1267.01 397.632C1268.23 395.904 1270.02 395.008 1272.32 395.008C1274.18 395.008 1275.65 395.584 1276.74 396.672C1277.83 397.792 1278.37 399.296 1278.37 401.152V412H1271.97V402.688C1271.97 400.928 1271.3 400.032 1269.95 400.032C1268.55 400.032 1267.84 400.96 1267.84 402.816V412H1261.54V402.464C1261.54 400.8 1260.87 399.936 1259.55 399.936C1258.11 399.936 1257.41 400.896 1257.41 402.816V412H1251.07V395.488H1257.15ZM1290.24 395.008C1292.89 395.008 1295.07 395.84 1296.73 397.44C1298.4 399.04 1299.23 401.12 1299.23 403.712C1299.23 406.304 1298.37 408.416 1296.7 410.048C1295.01 411.68 1292.83 412.512 1290.17 412.512C1287.49 412.512 1285.28 411.68 1283.61 410.08C1281.92 408.448 1281.09 406.336 1281.09 403.776C1281.09 401.184 1281.92 399.072 1283.61 397.44C1285.31 395.84 1287.52 395.008 1290.24 395.008ZM1290.11 399.616C1288.32 399.616 1287.42 400.992 1287.42 403.776C1287.42 406.56 1288.32 407.968 1290.17 407.968C1291.97 407.968 1292.89 406.528 1292.89 403.712C1292.89 400.96 1291.97 399.616 1290.11 399.616ZM1319.23 389.216V412.032H1313.18V410.24C1312.03 411.712 1310.49 412.448 1308.57 412.448C1306.33 412.448 1304.57 411.648 1303.23 410.048C1301.88 408.448 1301.24 406.304 1301.24 403.648C1301.24 401.056 1301.85 398.976 1303.13 397.408C1304.41 395.872 1306.11 395.072 1308.22 395.072C1310.07 395.072 1311.64 395.808 1312.92 397.28V389.216H1319.23ZM1310.36 399.936C1308.51 399.936 1307.61 401.184 1307.61 403.744C1307.61 406.176 1308.51 407.424 1310.36 407.424C1311.26 407.424 1311.93 407.104 1312.41 406.464C1312.89 405.824 1313.15 404.896 1313.15 403.712C1313.15 402.496 1312.89 401.536 1312.41 400.896C1311.93 400.256 1311.26 399.936 1310.36 399.936Z" fill="black"/>
<g filter="url(#filter6_d_4_97)">
<rect x="937" y="560" width="417" height="138" fill="#BBDFBC"/>
<rect x="935.5" y="558.5" width="420" height="141" stroke="black" stroke-width="3"/>
</g>
<path d="M1055.44 613.368L1046.26 629.748V639H1038.52V629.568L1029.37 613.368H1038.08L1039.99 617.436C1041.25 620.172 1042.04 622.08 1042.4 623.088C1042.98 621.54 1043.92 619.488 1045.14 616.896L1046.83 613.368H1055.44ZM1062.54 619.884C1065.52 619.884 1067.97 620.82 1069.84 622.62C1071.72 624.42 1072.65 626.76 1072.65 629.676C1072.65 632.592 1071.68 634.968 1069.81 636.804C1067.9 638.64 1065.45 639.576 1062.46 639.576C1059.44 639.576 1056.96 638.64 1055.08 636.84C1053.18 635.004 1052.24 632.628 1052.24 629.748C1052.24 626.832 1053.18 624.456 1055.08 622.62C1056.99 620.82 1059.48 619.884 1062.54 619.884ZM1062.39 625.068C1060.38 625.068 1059.37 626.616 1059.37 629.748C1059.37 632.88 1060.38 634.464 1062.46 634.464C1064.48 634.464 1065.52 632.844 1065.52 629.676C1065.52 626.58 1064.48 625.068 1062.39 625.068ZM1095.18 620.424V639.036H1088.27V636.66C1087.05 638.604 1085.14 639.576 1082.58 639.576C1078.05 639.576 1075.81 637.02 1075.81 631.944V620.46H1083.01V631.152C1083.01 632.808 1083.81 633.672 1085.43 633.672C1086.51 633.672 1087.19 633.312 1087.55 632.664C1087.87 631.98 1088.05 631.044 1088.05 629.856V620.424H1095.18ZM1130.15 639H1122.95C1122.77 638.388 1122.67 637.812 1122.63 637.272C1121.08 638.856 1119.1 639.612 1116.69 639.612C1114.6 639.612 1112.95 639.108 1111.76 638.064C1110.57 637.056 1109.96 635.616 1109.96 633.78C1109.96 632.844 1110.17 632.052 1110.53 631.332C1110.93 630.648 1111.33 630.108 1111.72 629.748C1112.12 629.388 1112.8 629.028 1113.74 628.74C1114.71 628.452 1115.39 628.236 1115.79 628.164C1116.22 628.092 1117.01 627.984 1118.17 627.804C1118.24 627.804 1118.27 627.768 1118.31 627.768C1118.35 627.768 1118.38 627.768 1118.45 627.768C1118.53 627.768 1118.56 627.732 1118.6 627.732C1118.74 627.732 1119.03 627.696 1119.46 627.66C1119.93 627.624 1120.29 627.588 1120.54 627.516C1120.79 627.48 1121.08 627.408 1121.44 627.3C1121.8 627.156 1122.05 626.976 1122.23 626.76C1122.38 626.508 1122.49 626.22 1122.49 625.896C1122.49 624.816 1121.69 624.276 1120.15 624.276C1119.28 624.276 1118.63 624.384 1118.27 624.672C1117.88 624.924 1117.63 625.428 1117.52 626.148H1110.86C1111 621.972 1114.1 619.92 1120.15 619.92C1124.9 619.92 1127.85 621.072 1128.93 623.376C1129.25 624.06 1129.43 625.176 1129.43 626.724C1129.43 627.48 1129.4 628.596 1129.4 630.036C1129.36 631.476 1129.36 632.7 1129.36 633.708C1129.36 636.192 1129.61 637.956 1130.15 639ZM1122.52 630.54C1121.98 630.9 1120.87 631.26 1119.21 631.62C1117.91 631.908 1117.27 632.556 1117.27 633.564C1117.27 634.14 1117.45 634.608 1117.81 634.932C1118.17 635.292 1118.63 635.436 1119.28 635.436C1120.58 635.436 1121.51 634.968 1122.09 633.996C1122.38 633.528 1122.52 632.736 1122.52 631.656V630.54ZM1147.19 620.244V626.472C1146.19 626.148 1145.29 625.968 1144.57 625.968C1143.13 625.968 1142.01 626.4 1141.25 627.192C1140.5 627.984 1140.14 629.136 1140.14 630.576V639H1133.05V620.424H1139.85L1139.81 623.304C1140.46 622.152 1141.25 621.324 1142.12 620.748C1142.98 620.208 1144.06 619.92 1145.36 619.92C1145.93 619.92 1146.55 620.028 1147.19 620.244ZM1167.78 633.42C1167.2 635.4 1166.01 636.912 1164.18 637.956C1162.34 639.036 1160.33 639.54 1158.13 639.54C1155.11 639.54 1152.62 638.712 1150.61 636.984C1148.63 635.292 1147.62 632.952 1147.62 629.928C1147.62 627.048 1148.59 624.636 1150.53 622.764C1152.48 620.892 1154.93 619.956 1157.88 619.956C1161.01 619.956 1163.49 620.928 1165.37 622.872C1167.24 624.816 1168.14 627.444 1168.14 630.72V631.26H1154.46C1154.53 632.448 1154.85 633.348 1155.5 633.996C1156.15 634.644 1157.01 634.968 1158.09 634.968C1159.43 634.968 1160.43 634.464 1161.12 633.42H1167.78ZM1161.19 627.696C1161.01 625.608 1159.93 624.528 1157.91 624.528C1156.01 624.528 1154.85 625.608 1154.49 627.696H1161.19ZM1200.42 625.86H1193.98C1193.84 625.212 1193.62 624.744 1193.26 624.492C1192.9 624.276 1192.29 624.132 1191.46 624.132C1190.16 624.132 1189.52 624.528 1189.52 625.248C1189.52 625.536 1189.59 625.752 1189.8 625.968C1190.02 626.184 1190.31 626.328 1190.74 626.472C1191.14 626.616 1191.5 626.688 1191.78 626.76C1192.07 626.832 1192.43 626.868 1192.9 626.94C1193.33 627.012 1193.58 627.012 1193.62 627.012C1194.48 627.192 1195.17 627.336 1195.74 627.48C1196.32 627.624 1196.97 627.84 1197.69 628.128C1198.41 628.452 1198.98 628.812 1199.42 629.172C1199.85 629.568 1200.21 630.072 1200.5 630.72C1200.78 631.368 1200.96 632.124 1200.96 632.952C1200.96 635.004 1200.14 636.588 1198.48 637.74C1196.82 638.892 1194.52 639.468 1191.6 639.468C1185.66 639.468 1182.53 637.272 1182.17 632.808H1188.9C1188.98 633.6 1189.26 634.14 1189.7 634.5C1190.13 634.86 1190.81 635.004 1191.75 635.004C1192.43 635.004 1192.97 634.896 1193.37 634.608C1193.76 634.356 1193.98 633.996 1193.98 633.528C1193.98 633.096 1193.76 632.772 1193.4 632.556C1193.01 632.376 1192.29 632.16 1191.21 631.908C1190.85 631.836 1190.56 631.8 1190.34 631.728C1187.9 631.224 1186.24 630.756 1185.45 630.324C1183.5 629.388 1182.57 627.876 1182.57 625.752C1182.57 623.88 1183.32 622.404 1184.87 621.396C1186.42 620.388 1188.65 619.884 1191.6 619.884C1194.12 619.884 1196.18 620.352 1197.76 621.216C1199.34 622.08 1200.21 623.628 1200.42 625.86ZM1222.9 639H1215.7C1215.52 638.388 1215.41 637.812 1215.37 637.272C1213.82 638.856 1211.84 639.612 1209.43 639.612C1207.34 639.612 1205.69 639.108 1204.5 638.064C1203.31 637.056 1202.7 635.616 1202.7 633.78C1202.7 632.844 1202.92 632.052 1203.28 631.332C1203.67 630.648 1204.07 630.108 1204.46 629.748C1204.86 629.388 1205.54 629.028 1206.48 628.74C1207.45 628.452 1208.14 628.236 1208.53 628.164C1208.96 628.092 1209.76 627.984 1210.91 627.804C1210.98 627.804 1211.02 627.768 1211.05 627.768C1211.09 627.768 1211.12 627.768 1211.2 627.768C1211.27 627.768 1211.3 627.732 1211.34 627.732C1211.48 627.732 1211.77 627.696 1212.2 627.66C1212.67 627.624 1213.03 627.588 1213.28 627.516C1213.54 627.48 1213.82 627.408 1214.18 627.3C1214.54 627.156 1214.8 626.976 1214.98 626.76C1215.12 626.508 1215.23 626.22 1215.23 625.896C1215.23 624.816 1214.44 624.276 1212.89 624.276C1212.02 624.276 1211.38 624.384 1211.02 624.672C1210.62 624.924 1210.37 625.428 1210.26 626.148H1203.6C1203.74 621.972 1206.84 619.92 1212.89 619.92C1217.64 619.92 1220.59 621.072 1221.67 623.376C1222 624.06 1222.18 625.176 1222.18 626.724C1222.18 627.48 1222.14 628.596 1222.14 630.036C1222.1 631.476 1222.1 632.7 1222.1 633.708C1222.1 636.192 1222.36 637.956 1222.9 639ZM1215.26 630.54C1214.72 630.9 1213.61 631.26 1211.95 631.62C1210.66 631.908 1210.01 632.556 1210.01 633.564C1210.01 634.14 1210.19 634.608 1210.55 634.932C1210.91 635.292 1211.38 635.436 1212.02 635.436C1213.32 635.436 1214.26 634.968 1214.83 633.996C1215.12 633.528 1215.26 632.736 1215.26 631.656V630.54ZM1237.96 613.44V618.3C1237.42 618.3 1236.88 618.264 1236.37 618.264C1235.4 618.264 1234.79 618.372 1234.54 618.516C1234.25 618.696 1234.14 619.056 1234.14 619.596V620.424H1237.81V624.816H1234.14V639H1227.05V624.816H1224.13V620.424H1227.05V619.668C1227.05 618.372 1227.23 617.328 1227.59 616.464C1227.95 615.6 1228.52 614.952 1229.28 614.52C1230.04 614.088 1230.86 613.8 1231.73 613.62C1232.59 613.476 1233.67 613.368 1234.9 613.368C1235.58 613.368 1236.59 613.404 1237.96 613.44ZM1259.15 633.42C1258.57 635.4 1257.38 636.912 1255.55 637.956C1253.71 639.036 1251.7 639.54 1249.5 639.54C1246.48 639.54 1243.99 638.712 1241.98 636.984C1240 635.292 1238.99 632.952 1238.99 629.928C1238.99 627.048 1239.96 624.636 1241.9 622.764C1243.85 620.892 1246.3 619.956 1249.25 619.956C1252.38 619.956 1254.86 620.928 1256.74 622.872C1258.61 624.816 1259.51 627.444 1259.51 630.72V631.26H1245.83C1245.9 632.448 1246.22 633.348 1246.87 633.996C1247.52 634.644 1248.38 634.968 1249.46 634.968C1250.8 634.968 1251.8 634.464 1252.49 633.42H1259.15ZM1252.56 627.696C1252.38 625.608 1251.3 624.528 1249.28 624.528C1247.38 624.528 1246.22 625.608 1245.86 627.696H1252.56Z" fill="black"/>
<g filter="url(#filter7_d_4_97)">
<rect x="3" y="1102" width="417" height="138" fill="#BBDFBC"/>
<rect x="1.5" y="1100.5" width="420" height="141" stroke="black" stroke-width="3"/>
</g>
<path d="M121.436 1155.37L112.256 1171.75V1181H104.516V1171.57L95.372 1155.37H104.084L105.992 1159.44C107.252 1162.17 108.044 1164.08 108.404 1165.09C108.98 1163.54 109.916 1161.49 111.14 1158.9L112.832 1155.37H121.436ZM128.535 1161.88C131.523 1161.88 133.971 1162.82 135.843 1164.62C137.715 1166.42 138.651 1168.76 138.651 1171.68C138.651 1174.59 137.679 1176.97 135.807 1178.8C133.899 1180.64 131.451 1181.58 128.463 1181.58C125.439 1181.58 122.955 1180.64 121.083 1178.84C119.175 1177 118.239 1174.63 118.239 1171.75C118.239 1168.83 119.175 1166.46 121.083 1164.62C122.991 1162.82 125.475 1161.88 128.535 1161.88ZM128.391 1167.07C126.375 1167.07 125.367 1168.62 125.367 1171.75C125.367 1174.88 126.375 1176.46 128.463 1176.46C130.479 1176.46 131.523 1174.84 131.523 1171.68C131.523 1168.58 130.479 1167.07 128.391 1167.07ZM161.183 1162.42V1181.04H154.271V1178.66C153.047 1180.6 151.139 1181.58 148.583 1181.58C144.047 1181.58 141.815 1179.02 141.815 1173.94V1162.46H149.015V1173.15C149.015 1174.81 149.807 1175.67 151.427 1175.67C152.507 1175.67 153.191 1175.31 153.551 1174.66C153.875 1173.98 154.055 1173.04 154.055 1171.86V1162.42H161.183ZM196.154 1181H188.954C188.774 1180.39 188.666 1179.81 188.63 1179.27C187.082 1180.86 185.102 1181.61 182.69 1181.61C180.602 1181.61 178.946 1181.11 177.758 1180.06C176.57 1179.06 175.958 1177.62 175.958 1175.78C175.958 1174.84 176.174 1174.05 176.534 1173.33C176.93 1172.65 177.326 1172.11 177.722 1171.75C178.118 1171.39 178.802 1171.03 179.738 1170.74C180.71 1170.45 181.394 1170.24 181.79 1170.16C182.222 1170.09 183.014 1169.98 184.166 1169.8C184.238 1169.8 184.274 1169.77 184.31 1169.77C184.346 1169.77 184.382 1169.77 184.454 1169.77C184.526 1169.77 184.562 1169.73 184.598 1169.73C184.742 1169.73 185.03 1169.7 185.462 1169.66C185.93 1169.62 186.29 1169.59 186.542 1169.52C186.794 1169.48 187.082 1169.41 187.442 1169.3C187.802 1169.16 188.054 1168.98 188.234 1168.76C188.378 1168.51 188.486 1168.22 188.486 1167.9C188.486 1166.82 187.694 1166.28 186.146 1166.28C185.282 1166.28 184.634 1166.38 184.274 1166.67C183.878 1166.92 183.626 1167.43 183.518 1168.15H176.858C177.002 1163.97 180.098 1161.92 186.146 1161.92C190.898 1161.92 193.85 1163.07 194.93 1165.38C195.254 1166.06 195.434 1167.18 195.434 1168.72C195.434 1169.48 195.398 1170.6 195.398 1172.04C195.362 1173.48 195.362 1174.7 195.362 1175.71C195.362 1178.19 195.614 1179.96 196.154 1181ZM188.522 1172.54C187.982 1172.9 186.866 1173.26 185.21 1173.62C183.914 1173.91 183.266 1174.56 183.266 1175.56C183.266 1176.14 183.446 1176.61 183.806 1176.93C184.166 1177.29 184.634 1177.44 185.282 1177.44C186.578 1177.44 187.514 1176.97 188.09 1176C188.378 1175.53 188.522 1174.74 188.522 1173.66V1172.54ZM213.194 1162.24V1168.47C212.186 1168.15 211.286 1167.97 210.566 1167.97C209.126 1167.97 208.01 1168.4 207.254 1169.19C206.498 1169.98 206.138 1171.14 206.138 1172.58V1181H199.046V1162.42H205.85L205.814 1165.3C206.462 1164.15 207.254 1163.32 208.118 1162.75C208.982 1162.21 210.062 1161.92 211.358 1161.92C211.934 1161.92 212.546 1162.03 213.194 1162.24ZM233.777 1175.42C233.201 1177.4 232.013 1178.91 230.177 1179.96C228.341 1181.04 226.325 1181.54 224.129 1181.54C221.105 1181.54 218.621 1180.71 216.605 1178.98C214.625 1177.29 213.617 1174.95 213.617 1171.93C213.617 1169.05 214.589 1166.64 216.533 1164.76C218.477 1162.89 220.925 1161.96 223.877 1161.96C227.009 1161.96 229.493 1162.93 231.365 1164.87C233.237 1166.82 234.137 1169.44 234.137 1172.72V1173.26H220.457C220.529 1174.45 220.853 1175.35 221.501 1176C222.149 1176.64 223.013 1176.97 224.093 1176.97C225.425 1176.97 226.433 1176.46 227.117 1175.42H233.777ZM227.189 1169.7C227.009 1167.61 225.929 1166.53 223.913 1166.53C222.005 1166.53 220.853 1167.61 220.493 1169.7H227.189ZM266.424 1167.86H259.98C259.836 1167.21 259.62 1166.74 259.26 1166.49C258.9 1166.28 258.288 1166.13 257.46 1166.13C256.164 1166.13 255.516 1166.53 255.516 1167.25C255.516 1167.54 255.588 1167.75 255.804 1167.97C256.02 1168.18 256.308 1168.33 256.74 1168.47C257.136 1168.62 257.496 1168.69 257.784 1168.76C258.072 1168.83 258.432 1168.87 258.9 1168.94C259.332 1169.01 259.584 1169.01 259.62 1169.01C260.484 1169.19 261.168 1169.34 261.744 1169.48C262.32 1169.62 262.968 1169.84 263.688 1170.13C264.408 1170.45 264.984 1170.81 265.416 1171.17C265.848 1171.57 266.208 1172.07 266.496 1172.72C266.784 1173.37 266.964 1174.12 266.964 1174.95C266.964 1177 266.136 1178.59 264.48 1179.74C262.824 1180.89 260.52 1181.47 257.604 1181.47C251.664 1181.47 248.532 1179.27 248.172 1174.81H254.904C254.976 1175.6 255.264 1176.14 255.696 1176.5C256.128 1176.86 256.812 1177 257.748 1177C258.432 1177 258.972 1176.9 259.368 1176.61C259.764 1176.36 259.98 1176 259.98 1175.53C259.98 1175.1 259.764 1174.77 259.404 1174.56C259.008 1174.38 258.288 1174.16 257.208 1173.91C256.848 1173.84 256.56 1173.8 256.344 1173.73C253.896 1173.22 252.24 1172.76 251.448 1172.32C249.504 1171.39 248.568 1169.88 248.568 1167.75C248.568 1165.88 249.324 1164.4 250.872 1163.4C252.42 1162.39 254.652 1161.88 257.604 1161.88C260.124 1161.88 262.176 1162.35 263.76 1163.22C265.344 1164.08 266.208 1165.63 266.424 1167.86ZM288.896 1181H281.696C281.516 1180.39 281.408 1179.81 281.372 1179.27C279.824 1180.86 277.844 1181.61 275.432 1181.61C273.344 1181.61 271.688 1181.11 270.5 1180.06C269.312 1179.06 268.7 1177.62 268.7 1175.78C268.7 1174.84 268.916 1174.05 269.276 1173.33C269.672 1172.65 270.068 1172.11 270.464 1171.75C270.86 1171.39 271.544 1171.03 272.48 1170.74C273.452 1170.45 274.136 1170.24 274.532 1170.16C274.964 1170.09 275.756 1169.98 276.908 1169.8C276.98 1169.8 277.016 1169.77 277.052 1169.77C277.088 1169.77 277.124 1169.77 277.196 1169.77C277.268 1169.77 277.304 1169.73 277.34 1169.73C277.484 1169.73 277.772 1169.7 278.204 1169.66C278.672 1169.62 279.032 1169.59 279.284 1169.52C279.536 1169.48 279.824 1169.41 280.184 1169.3C280.544 1169.16 280.796 1168.98 280.976 1168.76C281.12 1168.51 281.228 1168.22 281.228 1167.9C281.228 1166.82 280.436 1166.28 278.888 1166.28C278.024 1166.28 277.376 1166.38 277.016 1166.67C276.62 1166.92 276.368 1167.43 276.26 1168.15H269.6C269.744 1163.97 272.84 1161.92 278.888 1161.92C283.64 1161.92 286.592 1163.07 287.672 1165.38C287.996 1166.06 288.176 1167.18 288.176 1168.72C288.176 1169.48 288.14 1170.6 288.14 1172.04C288.104 1173.48 288.104 1174.7 288.104 1175.71C288.104 1178.19 288.356 1179.96 288.896 1181ZM281.264 1172.54C280.724 1172.9 279.608 1173.26 277.952 1173.62C276.656 1173.91 276.008 1174.56 276.008 1175.56C276.008 1176.14 276.188 1176.61 276.548 1176.93C276.908 1177.29 277.376 1177.44 278.024 1177.44C279.32 1177.44 280.256 1176.97 280.832 1176C281.12 1175.53 281.264 1174.74 281.264 1173.66V1172.54ZM303.956 1155.44V1160.3C303.416 1160.3 302.876 1160.26 302.372 1160.26C301.4 1160.26 300.788 1160.37 300.536 1160.52C300.248 1160.7 300.14 1161.06 300.14 1161.6V1162.42H303.812V1166.82H300.14V1181H293.048V1166.82H290.132V1162.42H293.048V1161.67C293.048 1160.37 293.228 1159.33 293.588 1158.46C293.948 1157.6 294.524 1156.95 295.28 1156.52C296.036 1156.09 296.864 1155.8 297.728 1155.62C298.592 1155.48 299.672 1155.37 300.896 1155.37C301.58 1155.37 302.588 1155.4 303.956 1155.44ZM325.148 1175.42C324.572 1177.4 323.384 1178.91 321.548 1179.96C319.712 1181.04 317.696 1181.54 315.5 1181.54C312.476 1181.54 309.992 1180.71 307.976 1178.98C305.996 1177.29 304.988 1174.95 304.988 1171.93C304.988 1169.05 305.96 1166.64 307.904 1164.76C309.848 1162.89 312.296 1161.96 315.248 1161.96C318.38 1161.96 320.864 1162.93 322.736 1164.87C324.608 1166.82 325.508 1169.44 325.508 1172.72V1173.26H311.828C311.9 1174.45 312.224 1175.35 312.872 1176C313.52 1176.64 314.384 1176.97 315.464 1176.97C316.796 1176.97 317.804 1176.46 318.488 1175.42H325.148ZM318.56 1169.7C318.38 1167.61 317.3 1166.53 315.284 1166.53C313.376 1166.53 312.224 1167.61 311.864 1169.7H318.56Z" fill="black"/>
<g filter="url(#filter8_d_4_97)">
<rect x="615" y="1102" width="417" height="138" fill="#BBDFBC"/>
<rect x="613.5" y="1100.5" width="420" height="141" stroke="black" stroke-width="3"/>
</g>
<path d="M733.436 1155.37L724.256 1171.75V1181H716.516V1171.57L707.372 1155.37H716.084L717.992 1159.44C719.252 1162.17 720.044 1164.08 720.404 1165.09C720.98 1163.54 721.916 1161.49 723.14 1158.9L724.832 1155.37H733.436ZM740.535 1161.88C743.523 1161.88 745.971 1162.82 747.843 1164.62C749.715 1166.42 750.651 1168.76 750.651 1171.68C750.651 1174.59 749.679 1176.97 747.807 1178.8C745.899 1180.64 743.451 1181.58 740.463 1181.58C737.439 1181.58 734.955 1180.64 733.083 1178.84C731.175 1177 730.239 1174.63 730.239 1171.75C730.239 1168.83 731.175 1166.46 733.083 1164.62C734.991 1162.82 737.475 1161.88 740.535 1161.88ZM740.391 1167.07C738.375 1167.07 737.367 1168.62 737.367 1171.75C737.367 1174.88 738.375 1176.46 740.463 1176.46C742.479 1176.46 743.523 1174.84 743.523 1171.68C743.523 1168.58 742.479 1167.07 740.391 1167.07ZM773.183 1162.42V1181.04H766.271V1178.66C765.047 1180.6 763.139 1181.58 760.583 1181.58C756.047 1181.58 753.815 1179.02 753.815 1173.94V1162.46H761.015V1173.15C761.015 1174.81 761.807 1175.67 763.427 1175.67C764.507 1175.67 765.191 1175.31 765.551 1174.66C765.875 1173.98 766.055 1173.04 766.055 1171.86V1162.42H773.183ZM808.154 1181H800.954C800.774 1180.39 800.666 1179.81 800.63 1179.27C799.082 1180.86 797.102 1181.61 794.69 1181.61C792.602 1181.61 790.946 1181.11 789.758 1180.06C788.57 1179.06 787.958 1177.62 787.958 1175.78C787.958 1174.84 788.174 1174.05 788.534 1173.33C788.93 1172.65 789.326 1172.11 789.722 1171.75C790.118 1171.39 790.802 1171.03 791.738 1170.74C792.71 1170.45 793.394 1170.24 793.79 1170.16C794.222 1170.09 795.014 1169.98 796.166 1169.8C796.238 1169.8 796.274 1169.77 796.31 1169.77C796.346 1169.77 796.382 1169.77 796.454 1169.77C796.526 1169.77 796.562 1169.73 796.598 1169.73C796.742 1169.73 797.03 1169.7 797.462 1169.66C797.93 1169.62 798.29 1169.59 798.542 1169.52C798.794 1169.48 799.082 1169.41 799.442 1169.3C799.802 1169.16 800.054 1168.98 800.234 1168.76C800.378 1168.51 800.486 1168.22 800.486 1167.9C800.486 1166.82 799.694 1166.28 798.146 1166.28C797.282 1166.28 796.634 1166.38 796.274 1166.67C795.878 1166.92 795.626 1167.43 795.518 1168.15H788.858C789.002 1163.97 792.098 1161.92 798.146 1161.92C802.898 1161.92 805.85 1163.07 806.93 1165.38C807.254 1166.06 807.434 1167.18 807.434 1168.72C807.434 1169.48 807.398 1170.6 807.398 1172.04C807.362 1173.48 807.362 1174.7 807.362 1175.71C807.362 1178.19 807.614 1179.96 808.154 1181ZM800.522 1172.54C799.982 1172.9 798.866 1173.26 797.21 1173.62C795.914 1173.91 795.266 1174.56 795.266 1175.56C795.266 1176.14 795.446 1176.61 795.806 1176.93C796.166 1177.29 796.634 1177.44 797.282 1177.44C798.578 1177.44 799.514 1176.97 800.09 1176C800.378 1175.53 800.522 1174.74 800.522 1173.66V1172.54ZM825.194 1162.24V1168.47C824.186 1168.15 823.286 1167.97 822.566 1167.97C821.126 1167.97 820.01 1168.4 819.254 1169.19C818.498 1169.98 818.138 1171.14 818.138 1172.58V1181H811.046V1162.42H817.85L817.814 1165.3C818.462 1164.15 819.254 1163.32 820.118 1162.75C820.982 1162.21 822.062 1161.92 823.358 1161.92C823.934 1161.92 824.546 1162.03 825.194 1162.24ZM845.777 1175.42C845.201 1177.4 844.013 1178.91 842.177 1179.96C840.341 1181.04 838.325 1181.54 836.129 1181.54C833.105 1181.54 830.621 1180.71 828.605 1178.98C826.625 1177.29 825.617 1174.95 825.617 1171.93C825.617 1169.05 826.589 1166.64 828.533 1164.76C830.477 1162.89 832.925 1161.96 835.877 1161.96C839.009 1161.96 841.493 1162.93 843.365 1164.87C845.237 1166.82 846.137 1169.44 846.137 1172.72V1173.26H832.457C832.529 1174.45 832.853 1175.35 833.501 1176C834.149 1176.64 835.013 1176.97 836.093 1176.97C837.425 1176.97 838.433 1176.46 839.117 1175.42H845.777ZM839.189 1169.7C839.009 1167.61 837.929 1166.53 835.913 1166.53C834.005 1166.53 832.853 1167.61 832.493 1169.7H839.189ZM878.424 1167.86H871.98C871.836 1167.21 871.62 1166.74 871.26 1166.49C870.9 1166.28 870.288 1166.13 869.46 1166.13C868.164 1166.13 867.516 1166.53 867.516 1167.25C867.516 1167.54 867.588 1167.75 867.804 1167.97C868.02 1168.18 868.308 1168.33 868.74 1168.47C869.136 1168.62 869.496 1168.69 869.784 1168.76C870.072 1168.83 870.432 1168.87 870.9 1168.94C871.332 1169.01 871.584 1169.01 871.62 1169.01C872.484 1169.19 873.168 1169.34 873.744 1169.48C874.32 1169.62 874.968 1169.84 875.688 1170.13C876.408 1170.45 876.984 1170.81 877.416 1171.17C877.848 1171.57 878.208 1172.07 878.496 1172.72C878.784 1173.37 878.964 1174.12 878.964 1174.95C878.964 1177 878.136 1178.59 876.48 1179.74C874.824 1180.89 872.52 1181.47 869.604 1181.47C863.664 1181.47 860.532 1179.27 860.172 1174.81H866.904C866.976 1175.6 867.264 1176.14 867.696 1176.5C868.128 1176.86 868.812 1177 869.748 1177C870.432 1177 870.972 1176.9 871.368 1176.61C871.764 1176.36 871.98 1176 871.98 1175.53C871.98 1175.1 871.764 1174.77 871.404 1174.56C871.008 1174.38 870.288 1174.16 869.208 1173.91C868.848 1173.84 868.56 1173.8 868.344 1173.73C865.896 1173.22 864.24 1172.76 863.448 1172.32C861.504 1171.39 860.568 1169.88 860.568 1167.75C860.568 1165.88 861.324 1164.4 862.872 1163.4C864.42 1162.39 866.652 1161.88 869.604 1161.88C872.124 1161.88 874.176 1162.35 875.76 1163.22C877.344 1164.08 878.208 1165.63 878.424 1167.86ZM900.896 1181H893.696C893.516 1180.39 893.408 1179.81 893.372 1179.27C891.824 1180.86 889.844 1181.61 887.432 1181.61C885.344 1181.61 883.688 1181.11 882.5 1180.06C881.312 1179.06 880.7 1177.62 880.7 1175.78C880.7 1174.84 880.916 1174.05 881.276 1173.33C881.672 1172.65 882.068 1172.11 882.464 1171.75C882.86 1171.39 883.544 1171.03 884.48 1170.74C885.452 1170.45 886.136 1170.24 886.532 1170.16C886.964 1170.09 887.756 1169.98 888.908 1169.8C888.98 1169.8 889.016 1169.77 889.052 1169.77C889.088 1169.77 889.124 1169.77 889.196 1169.77C889.268 1169.77 889.304 1169.73 889.34 1169.73C889.484 1169.73 889.772 1169.7 890.204 1169.66C890.672 1169.62 891.032 1169.59 891.284 1169.52C891.536 1169.48 891.824 1169.41 892.184 1169.3C892.544 1169.16 892.796 1168.98 892.976 1168.76C893.12 1168.51 893.228 1168.22 893.228 1167.9C893.228 1166.82 892.436 1166.28 890.888 1166.28C890.024 1166.28 889.376 1166.38 889.016 1166.67C888.62 1166.92 888.368 1167.43 888.26 1168.15H881.6C881.744 1163.97 884.84 1161.92 890.888 1161.92C895.64 1161.92 898.592 1163.07 899.672 1165.38C899.996 1166.06 900.176 1167.18 900.176 1168.72C900.176 1169.48 900.14 1170.6 900.14 1172.04C900.104 1173.48 900.104 1174.7 900.104 1175.71C900.104 1178.19 900.356 1179.96 900.896 1181ZM893.264 1172.54C892.724 1172.9 891.608 1173.26 889.952 1173.62C888.656 1173.91 888.008 1174.56 888.008 1175.56C888.008 1176.14 888.188 1176.61 888.548 1176.93C888.908 1177.29 889.376 1177.44 890.024 1177.44C891.32 1177.44 892.256 1176.97 892.832 1176C893.12 1175.53 893.264 1174.74 893.264 1173.66V1172.54ZM915.956 1155.44V1160.3C915.416 1160.3 914.876 1160.26 914.372 1160.26C913.4 1160.26 912.788 1160.37 912.536 1160.52C912.248 1160.7 912.14 1161.06 912.14 1161.6V1162.42H915.812V1166.82H912.14V1181H905.048V1166.82H902.132V1162.42H905.048V1161.67C905.048 1160.37 905.228 1159.33 905.588 1158.46C905.948 1157.6 906.524 1156.95 907.28 1156.52C908.036 1156.09 908.864 1155.8 909.728 1155.62C910.592 1155.48 911.672 1155.37 912.896 1155.37C913.58 1155.37 914.588 1155.4 915.956 1155.44ZM937.148 1175.42C936.572 1177.4 935.384 1178.91 933.548 1179.96C931.712 1181.04 929.696 1181.54 927.5 1181.54C924.476 1181.54 921.992 1180.71 919.976 1178.98C917.996 1177.29 916.988 1174.95 916.988 1171.93C916.988 1169.05 917.96 1166.64 919.904 1164.76C921.848 1162.89 924.296 1161.96 927.248 1161.96C930.38 1161.96 932.864 1162.93 934.736 1164.87C936.608 1166.82 937.508 1169.44 937.508 1172.72V1173.26H923.828C923.9 1174.45 924.224 1175.35 924.872 1176C925.52 1176.64 926.384 1176.97 927.464 1176.97C928.796 1176.97 929.804 1176.46 930.488 1175.42H937.148ZM930.56 1169.7C930.38 1167.61 929.3 1166.53 927.284 1166.53C925.376 1166.53 924.224 1167.61 923.864 1169.7H930.56Z" fill="black"/>
<g filter="url(#filter9_d_4_97)">
<rect x="1248" y="1102" width="417" height="138" fill="#FDAF7E"/>
<rect x="1246.5" y="1100.5" width="420" height="141" stroke="black" stroke-width="3"/>
</g>
<path d="M1330.08 1140.37L1320.9 1156.75V1166H1313.16V1156.57L1304.02 1140.37H1312.73L1314.64 1144.44C1315.9 1147.17 1316.69 1149.08 1317.05 1150.09C1317.63 1148.54 1318.56 1146.49 1319.79 1143.9L1321.48 1140.37H1330.08ZM1337.18 1146.88C1340.17 1146.88 1342.62 1147.82 1344.49 1149.62C1346.36 1151.42 1347.3 1153.76 1347.3 1156.68C1347.3 1159.59 1346.33 1161.97 1344.46 1163.8C1342.55 1165.64 1340.1 1166.58 1337.11 1166.58C1334.09 1166.58 1331.6 1165.64 1329.73 1163.84C1327.82 1162 1326.89 1159.63 1326.89 1156.75C1326.89 1153.83 1327.82 1151.46 1329.73 1149.62C1331.64 1147.82 1334.12 1146.88 1337.18 1146.88ZM1337.04 1152.07C1335.02 1152.07 1334.02 1153.62 1334.02 1156.75C1334.02 1159.88 1335.02 1161.46 1337.11 1161.46C1339.13 1161.46 1340.17 1159.84 1340.17 1156.68C1340.17 1153.58 1339.13 1152.07 1337.04 1152.07ZM1369.83 1147.42V1166.04H1362.92V1163.66C1361.7 1165.6 1359.79 1166.58 1357.23 1166.58C1352.7 1166.58 1350.46 1164.02 1350.46 1158.94V1147.46H1357.66V1158.15C1357.66 1159.81 1358.46 1160.67 1360.08 1160.67C1361.16 1160.67 1361.84 1160.31 1362.2 1159.66C1362.52 1158.98 1362.7 1158.04 1362.7 1156.86V1147.42H1369.83ZM1404.8 1166H1397.6C1397.42 1165.39 1397.31 1164.81 1397.28 1164.27C1395.73 1165.86 1393.75 1166.61 1391.34 1166.61C1389.25 1166.61 1387.59 1166.11 1386.41 1165.06C1385.22 1164.06 1384.61 1162.62 1384.61 1160.78C1384.61 1159.84 1384.82 1159.05 1385.18 1158.33C1385.58 1157.65 1385.97 1157.11 1386.37 1156.75C1386.77 1156.39 1387.45 1156.03 1388.39 1155.74C1389.36 1155.45 1390.04 1155.24 1390.44 1155.16C1390.87 1155.09 1391.66 1154.98 1392.81 1154.8C1392.89 1154.8 1392.92 1154.77 1392.96 1154.77C1392.99 1154.77 1393.03 1154.77 1393.1 1154.77C1393.17 1154.77 1393.21 1154.73 1393.25 1154.73C1393.39 1154.73 1393.68 1154.7 1394.11 1154.66C1394.58 1154.62 1394.94 1154.59 1395.19 1154.52C1395.44 1154.48 1395.73 1154.41 1396.09 1154.3C1396.45 1154.16 1396.7 1153.98 1396.88 1153.76C1397.03 1153.51 1397.13 1153.22 1397.13 1152.9C1397.13 1151.82 1396.34 1151.28 1394.79 1151.28C1393.93 1151.28 1393.28 1151.38 1392.92 1151.67C1392.53 1151.92 1392.27 1152.43 1392.17 1153.15H1385.51C1385.65 1148.97 1388.75 1146.92 1394.79 1146.92C1399.55 1146.92 1402.5 1148.07 1403.58 1150.38C1403.9 1151.06 1404.08 1152.18 1404.08 1153.72C1404.08 1154.48 1404.05 1155.6 1404.05 1157.04C1404.01 1158.48 1404.01 1159.7 1404.01 1160.71C1404.01 1163.19 1404.26 1164.96 1404.8 1166ZM1397.17 1157.54C1396.63 1157.9 1395.51 1158.26 1393.86 1158.62C1392.56 1158.91 1391.91 1159.56 1391.91 1160.56C1391.91 1161.14 1392.09 1161.61 1392.45 1161.93C1392.81 1162.29 1393.28 1162.44 1393.93 1162.44C1395.23 1162.44 1396.16 1161.97 1396.74 1161C1397.03 1160.53 1397.17 1159.74 1397.17 1158.66V1157.54ZM1421.84 1147.24V1153.47C1420.83 1153.15 1419.93 1152.97 1419.21 1152.97C1417.77 1152.97 1416.66 1153.4 1415.9 1154.19C1415.15 1154.98 1414.79 1156.14 1414.79 1157.58V1166H1407.69V1147.42H1414.5L1414.46 1150.3C1415.11 1149.15 1415.9 1148.32 1416.77 1147.75C1417.63 1147.21 1418.71 1146.92 1420.01 1146.92C1420.58 1146.92 1421.19 1147.03 1421.84 1147.24ZM1442.43 1160.42C1441.85 1162.4 1440.66 1163.91 1438.83 1164.96C1436.99 1166.04 1434.97 1166.54 1432.78 1166.54C1429.75 1166.54 1427.27 1165.71 1425.25 1163.98C1423.27 1162.29 1422.27 1159.95 1422.27 1156.93C1422.27 1154.05 1423.24 1151.64 1425.18 1149.76C1427.13 1147.89 1429.57 1146.96 1432.53 1146.96C1435.66 1146.96 1438.14 1147.93 1440.01 1149.87C1441.89 1151.82 1442.79 1154.44 1442.79 1157.72V1158.26H1429.11C1429.18 1159.45 1429.5 1160.35 1430.15 1161C1430.8 1161.64 1431.66 1161.97 1432.74 1161.97C1434.07 1161.97 1435.08 1161.46 1435.77 1160.42H1442.43ZM1435.84 1154.7C1435.66 1152.61 1434.58 1151.53 1432.56 1151.53C1430.65 1151.53 1429.5 1152.61 1429.14 1154.7H1435.84ZM1464.7 1147.42V1149.76C1466.22 1147.89 1468.16 1146.96 1470.61 1146.96C1472.95 1146.96 1474.64 1147.6 1475.72 1148.97C1476.76 1150.3 1477.3 1152.07 1477.3 1154.26V1166H1470.14V1155.6C1470.14 1153.65 1469.31 1152.64 1467.73 1152.64C1465.89 1152.64 1464.99 1153.69 1464.99 1155.78V1166H1457.86V1147.42H1464.7ZM1490.64 1146.88C1493.63 1146.88 1496.08 1147.82 1497.95 1149.62C1499.82 1151.42 1500.76 1153.76 1500.76 1156.68C1500.76 1159.59 1499.78 1161.97 1497.91 1163.8C1496 1165.64 1493.56 1166.58 1490.57 1166.58C1487.54 1166.58 1485.06 1165.64 1483.19 1163.84C1481.28 1162 1480.34 1159.63 1480.34 1156.75C1480.34 1153.83 1481.28 1151.46 1483.19 1149.62C1485.1 1147.82 1487.58 1146.88 1490.64 1146.88ZM1490.5 1152.07C1488.48 1152.07 1487.47 1153.62 1487.47 1156.75C1487.47 1159.88 1488.48 1161.46 1490.57 1161.46C1492.58 1161.46 1493.63 1159.84 1493.63 1156.68C1493.63 1153.58 1492.58 1152.07 1490.5 1152.07ZM1516.16 1147.42L1516.12 1151.85H1512.27V1158.48C1512.27 1159.48 1512.42 1160.17 1512.7 1160.53C1512.99 1160.89 1513.64 1161.03 1514.65 1161.03C1515.33 1161.03 1515.84 1161.03 1516.16 1160.96V1166.11C1514.72 1166.22 1513.46 1166.25 1512.42 1166.25C1509.79 1166.25 1507.92 1165.82 1506.84 1164.88C1505.76 1163.98 1505.22 1162.4 1505.22 1160.17V1151.85H1502.16V1147.42H1505.22V1141.7H1512.31V1147.42H1516.16ZM1547.78 1152.86H1541.33C1541.19 1152.21 1540.97 1151.74 1540.61 1151.49C1540.25 1151.28 1539.64 1151.13 1538.81 1151.13C1537.52 1151.13 1536.87 1151.53 1536.87 1152.25C1536.87 1152.54 1536.94 1152.75 1537.16 1152.97C1537.37 1153.18 1537.66 1153.33 1538.09 1153.47C1538.49 1153.62 1538.85 1153.69 1539.14 1153.76C1539.42 1153.83 1539.78 1153.87 1540.25 1153.94C1540.68 1154.01 1540.94 1154.01 1540.97 1154.01C1541.84 1154.19 1542.52 1154.34 1543.1 1154.48C1543.67 1154.62 1544.32 1154.84 1545.04 1155.13C1545.76 1155.45 1546.34 1155.81 1546.77 1156.17C1547.2 1156.57 1547.56 1157.07 1547.85 1157.72C1548.14 1158.37 1548.32 1159.12 1548.32 1159.95C1548.32 1162 1547.49 1163.59 1545.83 1164.74C1544.18 1165.89 1541.87 1166.47 1538.96 1166.47C1533.02 1166.47 1529.88 1164.27 1529.52 1159.81H1536.26C1536.33 1160.6 1536.62 1161.14 1537.05 1161.5C1537.48 1161.86 1538.16 1162 1539.1 1162C1539.78 1162 1540.32 1161.9 1540.72 1161.61C1541.12 1161.36 1541.33 1161 1541.33 1160.53C1541.33 1160.1 1541.12 1159.77 1540.76 1159.56C1540.36 1159.38 1539.64 1159.16 1538.56 1158.91C1538.2 1158.84 1537.91 1158.8 1537.7 1158.73C1535.25 1158.22 1533.59 1157.76 1532.8 1157.32C1530.86 1156.39 1529.92 1154.88 1529.92 1152.75C1529.92 1150.88 1530.68 1149.4 1532.22 1148.4C1533.77 1147.39 1536 1146.88 1538.96 1146.88C1541.48 1146.88 1543.53 1147.35 1545.11 1148.22C1546.7 1149.08 1547.56 1150.63 1547.78 1152.86ZM1570.25 1166H1563.05C1562.87 1165.39 1562.76 1164.81 1562.72 1164.27C1561.18 1165.86 1559.2 1166.61 1556.78 1166.61C1554.7 1166.61 1553.04 1166.11 1551.85 1165.06C1550.66 1164.06 1550.05 1162.62 1550.05 1160.78C1550.05 1159.84 1550.27 1159.05 1550.63 1158.33C1551.02 1157.65 1551.42 1157.11 1551.82 1156.75C1552.21 1156.39 1552.9 1156.03 1553.83 1155.74C1554.8 1155.45 1555.49 1155.24 1555.88 1155.16C1556.32 1155.09 1557.11 1154.98 1558.26 1154.8C1558.33 1154.8 1558.37 1154.77 1558.4 1154.77C1558.44 1154.77 1558.48 1154.77 1558.55 1154.77C1558.62 1154.77 1558.66 1154.73 1558.69 1154.73C1558.84 1154.73 1559.12 1154.7 1559.56 1154.66C1560.02 1154.62 1560.38 1154.59 1560.64 1154.52C1560.89 1154.48 1561.18 1154.41 1561.54 1154.3C1561.9 1154.16 1562.15 1153.98 1562.33 1153.76C1562.47 1153.51 1562.58 1153.22 1562.58 1152.9C1562.58 1151.82 1561.79 1151.28 1560.24 1151.28C1559.38 1151.28 1558.73 1151.38 1558.37 1151.67C1557.97 1151.92 1557.72 1152.43 1557.61 1153.15H1550.95C1551.1 1148.97 1554.19 1146.92 1560.24 1146.92C1564.99 1146.92 1567.94 1148.07 1569.02 1150.38C1569.35 1151.06 1569.53 1152.18 1569.53 1153.72C1569.53 1154.48 1569.49 1155.6 1569.49 1157.04C1569.46 1158.48 1569.46 1159.7 1569.46 1160.71C1569.46 1163.19 1569.71 1164.96 1570.25 1166ZM1562.62 1157.54C1562.08 1157.9 1560.96 1158.26 1559.3 1158.62C1558.01 1158.91 1557.36 1159.56 1557.36 1160.56C1557.36 1161.14 1557.54 1161.61 1557.9 1161.93C1558.26 1162.29 1558.73 1162.44 1559.38 1162.44C1560.67 1162.44 1561.61 1161.97 1562.18 1161C1562.47 1160.53 1562.62 1159.74 1562.62 1158.66V1157.54ZM1585.31 1140.44V1145.3C1584.77 1145.3 1584.23 1145.26 1583.72 1145.26C1582.75 1145.26 1582.14 1145.37 1581.89 1145.52C1581.6 1145.7 1581.49 1146.06 1581.49 1146.6V1147.42H1585.16V1151.82H1581.49V1166H1574.4V1151.82H1571.48V1147.42H1574.4V1146.67C1574.4 1145.37 1574.58 1144.33 1574.94 1143.46C1575.3 1142.6 1575.88 1141.95 1576.63 1141.52C1577.39 1141.09 1578.22 1140.8 1579.08 1140.62C1579.94 1140.48 1581.02 1140.37 1582.25 1140.37C1582.93 1140.37 1583.94 1140.4 1585.31 1140.44ZM1606.5 1160.42C1605.92 1162.4 1604.74 1163.91 1602.9 1164.96C1601.06 1166.04 1599.05 1166.54 1596.85 1166.54C1593.83 1166.54 1591.34 1165.71 1589.33 1163.98C1587.35 1162.29 1586.34 1159.95 1586.34 1156.93C1586.34 1154.05 1587.31 1151.64 1589.26 1149.76C1591.2 1147.89 1593.65 1146.96 1596.6 1146.96C1599.73 1146.96 1602.22 1147.93 1604.09 1149.87C1605.96 1151.82 1606.86 1154.44 1606.86 1157.72V1158.26H1593.18C1593.25 1159.45 1593.58 1160.35 1594.22 1161C1594.87 1161.64 1595.74 1161.97 1596.82 1161.97C1598.15 1161.97 1599.16 1161.46 1599.84 1160.42H1606.5ZM1599.91 1154.7C1599.73 1152.61 1598.65 1151.53 1596.64 1151.53C1594.73 1151.53 1593.58 1152.61 1593.22 1154.7H1599.91ZM1358.06 1176.76V1180.34H1351.4V1182.52H1357.14V1185.88H1351.4V1191H1347.04V1176.76H1358.06ZM1364.81 1180.38C1366.47 1180.38 1367.83 1180.9 1368.87 1181.9C1369.91 1182.9 1370.43 1184.2 1370.43 1185.82C1370.43 1187.44 1369.89 1188.76 1368.85 1189.78C1367.79 1190.8 1366.43 1191.32 1364.77 1191.32C1363.09 1191.32 1361.71 1190.8 1360.67 1189.8C1359.61 1188.78 1359.09 1187.46 1359.09 1185.86C1359.09 1184.24 1359.61 1182.92 1360.67 1181.9C1361.73 1180.9 1363.11 1180.38 1364.81 1180.38ZM1364.73 1183.26C1363.61 1183.26 1363.05 1184.12 1363.05 1185.86C1363.05 1187.6 1363.61 1188.48 1364.77 1188.48C1365.89 1188.48 1366.47 1187.58 1366.47 1185.82C1366.47 1184.1 1365.89 1183.26 1364.73 1183.26ZM1376.19 1176.76V1191H1372.23V1176.76H1376.19ZM1382.5 1176.76V1191H1378.54V1176.76H1382.5ZM1390.03 1180.38C1391.69 1180.38 1393.05 1180.9 1394.09 1181.9C1395.13 1182.9 1395.65 1184.2 1395.65 1185.82C1395.65 1187.44 1395.11 1188.76 1394.07 1189.78C1393.01 1190.8 1391.65 1191.32 1389.99 1191.32C1388.31 1191.32 1386.93 1190.8 1385.89 1189.8C1384.83 1188.78 1384.31 1187.46 1384.31 1185.86C1384.31 1184.24 1384.83 1182.92 1385.89 1181.9C1386.95 1180.9 1388.33 1180.38 1390.03 1180.38ZM1389.95 1183.26C1388.83 1183.26 1388.27 1184.12 1388.27 1185.86C1388.27 1187.6 1388.83 1188.48 1389.99 1188.48C1391.11 1188.48 1391.69 1187.58 1391.69 1185.82C1391.69 1184.1 1391.11 1183.26 1389.95 1183.26ZM1413.79 1180.68L1410.51 1191H1406.49L1405.61 1187.62C1405.35 1186.6 1405.13 1185.36 1404.95 1183.92C1404.77 1185.26 1404.55 1186.5 1404.29 1187.62L1403.47 1191H1399.43L1396.17 1180.68H1400.27L1401.01 1183.58C1401.33 1184.9 1401.59 1186.26 1401.79 1187.66C1402.03 1186.04 1402.27 1184.62 1402.55 1183.42L1403.15 1180.68H1406.83L1407.51 1183.7C1407.79 1184.96 1408.01 1186.26 1408.21 1187.62C1408.37 1186.34 1408.63 1185.06 1408.95 1183.76L1409.71 1180.68H1413.79ZM1429.27 1180.58V1184.04C1428.71 1183.86 1428.21 1183.76 1427.81 1183.76C1427.01 1183.76 1426.39 1184 1425.97 1184.44C1425.55 1184.88 1425.35 1185.52 1425.35 1186.32V1191H1421.41V1180.68H1425.19L1425.17 1182.28C1425.53 1181.64 1425.97 1181.18 1426.45 1180.86C1426.93 1180.56 1427.53 1180.4 1428.25 1180.4C1428.57 1180.4 1428.91 1180.46 1429.27 1180.58ZM1440.7 1187.9C1440.38 1189 1439.72 1189.84 1438.7 1190.42C1437.68 1191.02 1436.56 1191.3 1435.34 1191.3C1433.66 1191.3 1432.28 1190.84 1431.16 1189.88C1430.06 1188.94 1429.5 1187.64 1429.5 1185.96C1429.5 1184.36 1430.04 1183.02 1431.12 1181.98C1432.2 1180.94 1433.56 1180.42 1435.2 1180.42C1436.94 1180.42 1438.32 1180.96 1439.36 1182.04C1440.4 1183.12 1440.9 1184.58 1440.9 1186.4V1186.7H1433.3C1433.34 1187.36 1433.52 1187.86 1433.88 1188.22C1434.24 1188.58 1434.72 1188.76 1435.32 1188.76C1436.06 1188.76 1436.62 1188.48 1437 1187.9H1440.7ZM1437.04 1184.72C1436.94 1183.56 1436.34 1182.96 1435.22 1182.96C1434.16 1182.96 1433.52 1183.56 1433.32 1184.72H1437.04ZM1446.42 1180.68L1446.4 1182C1447.16 1180.92 1448.24 1180.38 1449.64 1180.38C1451.06 1180.38 1452.04 1180.94 1452.58 1182.02C1453.34 1180.94 1454.46 1180.38 1455.9 1180.38C1457.06 1180.38 1457.98 1180.74 1458.66 1181.42C1459.34 1182.12 1459.68 1183.06 1459.68 1184.22V1191H1455.68V1185.18C1455.68 1184.08 1455.26 1183.52 1454.42 1183.52C1453.54 1183.52 1453.1 1184.1 1453.1 1185.26V1191H1449.16V1185.04C1449.16 1184 1448.74 1183.46 1447.92 1183.46C1447.02 1183.46 1446.58 1184.06 1446.58 1185.26V1191H1442.62V1180.68H1446.42ZM1467.1 1180.38C1468.76 1180.38 1470.12 1180.9 1471.16 1181.9C1472.2 1182.9 1472.72 1184.2 1472.72 1185.82C1472.72 1187.44 1472.18 1188.76 1471.14 1189.78C1470.08 1190.8 1468.72 1191.32 1467.06 1191.32C1465.38 1191.32 1464 1190.8 1462.96 1189.8C1461.9 1188.78 1461.38 1187.46 1461.38 1185.86C1461.38 1184.24 1461.9 1182.92 1462.96 1181.9C1464.02 1180.9 1465.4 1180.38 1467.1 1180.38ZM1467.02 1183.26C1465.9 1183.26 1465.34 1184.12 1465.34 1185.86C1465.34 1187.6 1465.9 1188.48 1467.06 1188.48C1468.18 1188.48 1468.76 1187.58 1468.76 1185.82C1468.76 1184.1 1468.18 1183.26 1467.02 1183.26ZM1484.64 1180.68L1481.24 1191H1476.6L1473.16 1180.68H1477.34L1478.16 1183.72C1478.54 1185.12 1478.8 1186.4 1478.94 1187.52C1479.04 1186.64 1479.3 1185.44 1479.72 1183.96L1480.64 1180.68H1484.64ZM1496.13 1191H1492.13C1492.03 1190.66 1491.97 1190.34 1491.95 1190.04C1491.09 1190.92 1489.99 1191.34 1488.65 1191.34C1487.49 1191.34 1486.57 1191.06 1485.91 1190.48C1485.25 1189.92 1484.91 1189.12 1484.91 1188.1C1484.91 1187.58 1485.03 1187.14 1485.23 1186.74C1485.45 1186.36 1485.67 1186.06 1485.89 1185.86C1486.11 1185.66 1486.49 1185.46 1487.01 1185.3C1487.55 1185.14 1487.93 1185.02 1488.15 1184.98C1488.39 1184.94 1488.83 1184.88 1489.47 1184.78C1489.51 1184.78 1489.53 1184.76 1489.55 1184.76C1489.57 1184.76 1489.59 1184.76 1489.63 1184.76C1489.67 1184.76 1489.69 1184.74 1489.71 1184.74C1489.79 1184.74 1489.95 1184.72 1490.19 1184.7C1490.45 1184.68 1490.65 1184.66 1490.79 1184.62C1490.93 1184.6 1491.09 1184.56 1491.29 1184.5C1491.49 1184.42 1491.63 1184.32 1491.73 1184.2C1491.81 1184.06 1491.87 1183.9 1491.87 1183.72C1491.87 1183.12 1491.43 1182.82 1490.57 1182.82C1490.09 1182.82 1489.73 1182.88 1489.53 1183.04C1489.31 1183.18 1489.17 1183.46 1489.11 1183.86H1485.41C1485.49 1181.54 1487.21 1180.4 1490.57 1180.4C1493.21 1180.4 1494.85 1181.04 1495.45 1182.32C1495.63 1182.7 1495.73 1183.32 1495.73 1184.18C1495.73 1184.6 1495.71 1185.22 1495.71 1186.02C1495.69 1186.82 1495.69 1187.5 1495.69 1188.06C1495.69 1189.44 1495.83 1190.42 1496.13 1191ZM1491.89 1186.3C1491.59 1186.5 1490.97 1186.7 1490.05 1186.9C1489.33 1187.06 1488.97 1187.42 1488.97 1187.98C1488.97 1188.3 1489.07 1188.56 1489.27 1188.74C1489.47 1188.94 1489.73 1189.02 1490.09 1189.02C1490.81 1189.02 1491.33 1188.76 1491.65 1188.22C1491.81 1187.96 1491.89 1187.52 1491.89 1186.92V1186.3ZM1501.82 1176.76V1191H1497.86V1176.76H1501.82ZM1521.28 1180.68L1521.26 1189.54C1521.26 1191.34 1520.8 1192.6 1519.88 1193.36C1518.96 1194.12 1517.6 1194.48 1515.78 1194.48C1515.1 1194.48 1514.48 1194.44 1513.92 1194.34C1513.38 1194.26 1512.86 1194.08 1512.36 1193.84C1511.84 1193.6 1511.44 1193.26 1511.12 1192.78C1510.8 1192.32 1510.6 1191.76 1510.52 1191.1H1514.46C1514.56 1191.44 1514.72 1191.68 1514.94 1191.82C1515.14 1191.94 1515.48 1192.02 1515.92 1192.02C1516.54 1192.02 1516.96 1191.86 1517.16 1191.54C1517.36 1191.22 1517.46 1190.76 1517.46 1190.14V1188.96C1516.74 1189.84 1515.76 1190.26 1514.54 1190.26C1513.18 1190.26 1512.1 1189.84 1511.34 1188.96C1510.56 1188.1 1510.18 1186.9 1510.18 1185.36C1510.18 1183.84 1510.56 1182.64 1511.36 1181.74C1512.16 1180.84 1513.22 1180.38 1514.58 1180.38C1515.26 1180.38 1515.82 1180.5 1516.26 1180.74C1516.7 1180.98 1517.1 1181.38 1517.46 1181.92V1180.68H1521.28ZM1515.74 1183.32C1515.18 1183.32 1514.76 1183.5 1514.46 1183.86C1514.16 1184.22 1514 1184.74 1514 1185.4C1514 1186.08 1514.16 1186.6 1514.46 1186.96C1514.78 1187.32 1515.2 1187.5 1515.76 1187.5C1516.34 1187.5 1516.78 1187.32 1517.08 1186.96C1517.38 1186.6 1517.52 1186.08 1517.52 1185.4C1517.52 1184.74 1517.38 1184.22 1517.06 1183.86C1516.76 1183.5 1516.32 1183.32 1515.74 1183.32ZM1534.16 1180.68V1191.02H1530.32V1189.7C1529.64 1190.78 1528.58 1191.32 1527.16 1191.32C1524.64 1191.32 1523.4 1189.9 1523.4 1187.08V1180.7H1527.4V1186.64C1527.4 1187.56 1527.84 1188.04 1528.74 1188.04C1529.34 1188.04 1529.72 1187.84 1529.92 1187.48C1530.1 1187.1 1530.2 1186.58 1530.2 1185.92V1180.68H1534.16ZM1540.37 1176.76V1179.52H1536.41V1176.76H1540.37ZM1540.37 1180.68V1191H1536.41V1180.68H1540.37ZM1553.42 1176.76V1191.02H1549.64V1189.9C1548.92 1190.82 1547.96 1191.28 1546.76 1191.28C1545.36 1191.28 1544.26 1190.78 1543.42 1189.78C1542.58 1188.78 1542.18 1187.44 1542.18 1185.78C1542.18 1184.16 1542.56 1182.86 1543.36 1181.88C1544.16 1180.92 1545.22 1180.42 1546.54 1180.42C1547.7 1180.42 1548.68 1180.88 1549.48 1181.8V1176.76H1553.42ZM1547.88 1183.46C1546.72 1183.46 1546.16 1184.24 1546.16 1185.84C1546.16 1187.36 1546.72 1188.14 1547.88 1188.14C1548.44 1188.14 1548.86 1187.94 1549.16 1187.54C1549.46 1187.14 1549.62 1186.56 1549.62 1185.82C1549.62 1185.06 1549.46 1184.46 1549.16 1184.06C1548.86 1183.66 1548.44 1183.46 1547.88 1183.46ZM1566.33 1187.9C1566.01 1189 1565.35 1189.84 1564.33 1190.42C1563.31 1191.02 1562.19 1191.3 1560.97 1191.3C1559.29 1191.3 1557.91 1190.84 1556.79 1189.88C1555.69 1188.94 1555.13 1187.64 1555.13 1185.96C1555.13 1184.36 1555.67 1183.02 1556.75 1181.98C1557.83 1180.94 1559.19 1180.42 1560.83 1180.42C1562.57 1180.42 1563.95 1180.96 1564.99 1182.04C1566.03 1183.12 1566.53 1184.58 1566.53 1186.4V1186.7H1558.93C1558.97 1187.36 1559.15 1187.86 1559.51 1188.22C1559.87 1188.58 1560.35 1188.76 1560.95 1188.76C1561.69 1188.76 1562.25 1188.48 1562.63 1187.9H1566.33ZM1562.67 1184.72C1562.57 1183.56 1561.97 1182.96 1560.85 1182.96C1559.79 1182.96 1559.15 1183.56 1558.95 1184.72H1562.67Z" fill="black"/>
<defs>
<filter id="filter0_d_4_97" x="623" y="0" width="429" height="150" filterUnits="userSpaceOnUse" color-interpolation-filters="sRGB">
<feFlood flood-opacity="0" result="BackgroundImageFix"/>
<feColorMatrix in="SourceAlpha" type="matrix" values="0 0 0 0 0 0 0 0 0 0 0 0 0 0 0 0 0 0 127 0" result="hardAlpha"/>
<feOffset dx="6" dy="6"/>
<feComposite in2="hardAlpha" operator="out"/>
<feColorMatrix type="matrix" values="0 0 0 0 0.101961 0 0 0 0 0.101961 0 0 0 0 0.101961 0 0 0 1 0"/>
<feBlend mode="normal" in2="BackgroundImageFix" result="effect1_dropShadow_4_97"/>
<feBlend mode="normal" in="SourceGraphic" in2="effect1_dropShadow_4_97" result="shape"/>
</filter>
<filter id="filter1_d_4_97" x="311" y="331" width="429" height="150" filterUnits="userSpaceOnUse" color-interpolation-filters="sRGB">
<feFlood flood-opacity="0" result="BackgroundImageFix"/>
<feColorMatrix in="SourceAlpha" type="matrix" values="0 0 0 0 0 0 0 0 0 0 0 0 0 0 0 0 0 0 127 0" result="hardAlpha"/>
<feOffset dx="6" dy="6"/>
<feComposite in2="hardAlpha" operator="out"/>
<feColorMatrix type="matrix" values="0 0 0 0 0.101961 0 0 0 0 0.101961 0 0 0 0 0.101961 0 0 0 1 0"/>
<feBlend mode="normal" in2="BackgroundImageFix" result="effect1_dropShadow_4_97"/>
<feBlend mode="normal" in="SourceGraphic" in2="effect1_dropShadow_4_97" result="shape"/>
</filter>
<filter id="filter2_d_4_97" x="622" y="850" width="429" height="150" filterUnits="userSpaceOnUse" color-interpolation-filters="sRGB">
<feFlood flood-opacity="0" result="BackgroundImageFix"/>
<feColorMatrix in="SourceAlpha" type="matrix" values="0 0 0 0 0 0 0 0 0 0 0 0 0 0 0 0 0 0 127 0" result="hardAlpha"/>
<feOffset dx="6" dy="6"/>
<feComposite in2="hardAlpha" operator="out"/>
<feColorMatrix type="matrix" values="0 0 0 0 0.101961 0 0 0 0 0.101961 0 0 0 0 0.101961 0 0 0 1 0"/>
<feBlend mode="normal" in2="BackgroundImageFix" result="effect1_dropShadow_4_97"/>
<feBlend mode="normal" in="SourceGraphic" in2="effect1_dropShadow_4_97" result="shape"/>
</filter>
<filter id="filter3_d_4_97" x="1245" y="850" width="429" height="150" filterUnits="userSpaceOnUse" color-interpolation-filters="sRGB">
<feFlood flood-opacity="0" result="BackgroundImageFix"/>
<feColorMatrix in="SourceAlpha" type="matrix" values="0 0 0 0 0 0 0 0 0 0 0 0 0 0 0 0 0 0 127 0" result="hardAlpha"/>
<feOffset dx="6" dy="6"/>
<feComposite in2="hardAlpha" operator="out"/>
<feColorMatrix type="matrix" values="0 0 0 0 0.101961 0 0 0 0 0.101961 0 0 0 0 0.101961 0 0 0 1 0"/>
<feBlend mode="normal" in2="BackgroundImageFix" result="effect1_dropShadow_4_97"/>
<feBlend mode="normal" in="SourceGraphic" in2="effect1_dropShadow_4_97" result="shape"/>
</filter>
<filter id="filter4_d_4_97" x="0" y="850" width="429" height="150" filterUnits="userSpaceOnUse" color-interpolation-filters="sRGB">
<feFlood flood-opacity="0" result="BackgroundImageFix"/>
<feColorMatrix in="SourceAlpha" type="matrix" values="0 0 0 0 0 0 0 0 0 0 0 0 0 0 0 0 0 0 127 0" result="hardAlpha"/>
<feOffset dx="6" dy="6"/>
<feComposite in2="hardAlpha" operator="out"/>
<feColorMatrix type="matrix" values="0 0 0 0 0.101961 0 0 0 0 0.101961 0 0 0 0 0.101961 0 0 0 1 0"/>
<feBlend mode="normal" in2="BackgroundImageFix" result="effect1_dropShadow_4_97"/>
<feBlend mode="normal" in="SourceGraphic" in2="effect1_dropShadow_4_97" result="shape"/>
</filter>
<filter id="filter5_d_4_97" x="934" y="331" width="429" height="150" filterUnits="userSpaceOnUse" color-interpolation-filters="sRGB">
<feFlood flood-opacity="0" result="BackgroundImageFix"/>
<feColorMatrix in="SourceAlpha" type="matrix" values="0 0 0 0 0 0 0 0 0 0 0 0 0 0 0 0 0 0 127 0" result="hardAlpha"/>
<feOffset dx="6" dy="6"/>
<feComposite in2="hardAlpha" operator="out"/>
<feColorMatrix type="matrix" values="0 0 0 0 0.101961 0 0 0 0 0.101961 0 0 0 0 0.101961 0 0 0 1 0"/>
<feBlend mode="normal" in2="BackgroundImageFix" result="effect1_dropShadow_4_97"/>
<feBlend mode="normal" in="SourceGraphic" in2="effect1_dropShadow_4_97" result="shape"/>
</filter>
<filter id="filter6_d_4_97" x="934" y="557" width="429" height="150" filterUnits="userSpaceOnUse" color-interpolation-filters="sRGB">
<feFlood flood-opacity="0" result="BackgroundImageFix"/>
<feColorMatrix in="SourceAlpha" type="matrix" values="0 0 0 0 0 0 0 0 0 0 0 0 0 0 0 0 0 0 127 0" result="hardAlpha"/>
<feOffset dx="6" dy="6"/>
<feComposite in2="hardAlpha" operator="out"/>
<feColorMatrix type="matrix" values="0 0 0 0 0.101961 0 0 0 0 0.101961 0 0 0 0 0.101961 0 0 0 1 0"/>
<feBlend mode="normal" in2="BackgroundImageFix" result="effect1_dropShadow_4_97"/>
<feBlend mode="normal" in="SourceGraphic" in2="effect1_dropShadow_4_97" result="shape"/>
</filter>
<filter id="filter7_d_4_97" x="0" y="1099" width="429" height="150" filterUnits="userSpaceOnUse" color-interpolation-filters="sRGB">
<feFlood flood-opacity="0" result="BackgroundImageFix"/>
<feColorMatrix in="SourceAlpha" type="matrix" values="0 0 0 0 0 0 0 0 0 0 0 0 0 0 0 0 0 0 127 0" result="hardAlpha"/>
<feOffset dx="6" dy="6"/>
<feComposite in2="hardAlpha" operator="out"/>
<feColorMatrix type="matrix" values="0 0 0 0 0.101961 0 0 0 0 0.101961 0 0 0 0 0.101961 0 0 0 1 0"/>
<feBlend mode="normal" in2="BackgroundImageFix" result="effect1_dropShadow_4_97"/>
<feBlend mode="normal" in="SourceGraphic" in2="effect1_dropShadow_4_97" result="shape"/>
</filter>
<filter id="filter8_d_4_97" x="612" y="1099" width="429" height="150" filterUnits="userSpaceOnUse" color-interpolation-filters="sRGB">
<feFlood flood-opacity="0" result="BackgroundImageFix"/>
<feColorMatrix in="SourceAlpha" type="matrix" values="0 0 0 0 0 0 0 0 0 0 0 0 0 0 0 0 0 0 127 0" result="hardAlpha"/>
<feOffset dx="6" dy="6"/>
<feComposite in2="hardAlpha" operator="out"/>
<feColorMatrix type="matrix" values="0 0 0 0 0.101961 0 0 0 0 0.101961 0 0 0 0 0.101961 0 0 0 1 0"/>
<feBlend mode="normal" in2="BackgroundImageFix" result="effect1_dropShadow_4_97"/>
<feBlend mode="normal" in="SourceGraphic" in2="effect1_dropShadow_4_97" result="shape"/>
</filter>
<filter id="filter9_d_4_97" x="1245" y="1099" width="429" height="150" filterUnits="userSpaceOnUse" color-interpolation-filters="sRGB">
<feFlood flood-opacity="0" result="BackgroundImageFix"/>
<feColorMatrix in="SourceAlpha" type="matrix" values="0 0 0 0 0 0 0 0 0 0 0 0 0 0 0 0 0 0 127 0" result="hardAlpha"/>
<feOffset dx="6" dy="6"/>
<feComposite in2="hardAlpha" operator="out"/>
<feColorMatrix type="matrix" values="0 0 0 0 0.101961 0 0 0 0 0.101961 0 0 0 0 0.101961 0 0 0 1 0"/>
<feBlend mode="normal" in2="BackgroundImageFix" result="effect1_dropShadow_4_97"/>
<feBlend mode="normal" in="SourceGraphic" in2="effect1_dropShadow_4_97" result="shape"/>
</filter>
</defs>
</svg>
